<svg width="20" height="20" viewBox="0 0 20 20" fill="none" xmlns="http://www.w3.org/2000/svg">
<path d="M9.99231 1.66577C9.53231 1.66577 9.15898 2.03857 9.15898 2.49847V11.2934L6.65898 8.82195L5.4873 9.99272L9.39315 13.9222C9.71898 14.247 10.2656 14.247 10.5915 13.9222L14.4973 9.99272L13.3256 8.82195L10.8256 11.2934V2.49847C10.8256 2.03857 10.4523 1.66569 9.99231 1.66577Z" fill="white"/>
<path opacity="0.4" d="M3.33333 11.6667C2.87333 11.6667 2.5 12.04 2.5 12.5V14.1667C2.5 16.0075 3.9925 17.5 5.83334 17.5H14.1667C16.0075 17.5 17.5 16.0075 17.5 14.1667V12.5C17.5 12.04 17.1267 11.6667 16.6667 11.6667C16.2067 11.6667 15.8333 12.04 15.8333 12.5V14.1667C15.8333 15.0875 15.0875 15.8334 14.1667 15.8334H5.83334C4.9125 15.8334 4.16667 15.0875 4.16667 14.1667V12.5C4.16667 12.04 3.79333 11.6667 3.33333 11.6667Z" fill="white"/>
</svg>
