<svg width="24" height="24" viewBox="0 0 24 24" fill="none" xmlns="http://www.w3.org/2000/svg">
<circle opacity="0.4" cx="12" cy="12" r="10" fill="white"/>
<path fill-rule="evenodd" clip-rule="evenodd" d="M9.99917 21.7998V18.6392C9.54307 18.8572 9.03817 19.0142 8.49917 19.0142C8.02927 19.0142 7.59601 18.9322 7.18661 18.7642C6.91321 18.6522 6.47411 18.1872 6.31161 17.8582C6.20483 17.6419 6.13234 17.4205 6.06584 17.2173C5.91495 16.7563 5.79479 16.3892 5.37408 16.3892C5.08868 16.3892 4.65298 16.2712 4.65528 15.9832C4.65718 15.7462 5.01778 15.6602 5.31158 15.6392C6.25328 15.5712 7.00261 16.4742 7.06161 16.6082C7.11161 16.7212 7.22651 16.9192 7.31161 17.0142C7.58491 17.3212 8.00577 17.5142 8.49917 17.5142C9.08787 17.5142 9.59737 17.2382 9.84297 16.8262C9.88437 16.757 9.93632 16.6423 9.99329 16.5165L9.99332 16.5164L9.99332 16.5164C10.0738 16.3387 10.1643 16.1389 10.2492 16.0142C7.76477 15.8262 5.99909 14.5062 5.99909 11.5142C5.99909 10.6362 6.29461 9.76815 6.78031 9.10815C6.66351 8.43115 6.56341 7.29616 6.99911 6.01416C8.17901 6.01416 9.21937 6.64016 9.90537 7.13916C10.2506 7.07116 10.6315 7.01416 10.9992 7.01416H12.9992C13.3392 7.01416 13.7408 7.06816 14.0617 7.13916C14.7818 6.60616 15.7766 6.01416 16.9992 6.01416C17.498 7.48116 17.2514 8.83815 17.1554 9.35815C17.621 10.0702 18.0202 11.0562 17.9907 11.9022C17.9001 14.4932 16.2188 15.8932 13.7914 16.0162C13.9535 16.3522 13.9992 16.6292 13.9992 17.0142V21.8001C13.3532 21.9312 12.6846 22 12 22C11.3148 22 10.6456 21.9311 9.99917 21.7998Z" fill="white"/>
</svg>
