<svg width="32" height="32" viewBox="0 0 32 32" fill="none" xmlns="http://www.w3.org/2000/svg">
<g clip-path="url(#clip0_5_42)">
<path fill-rule="evenodd" clip-rule="evenodd" d="M16 2.66499C23.3649 2.66499 29.335 8.78567 29.335 16.3373C29.335 22.3767 25.5185 27.5 20.2232 29.3096C19.5471 29.4443 19.3071 29.0173 19.3071 28.6533C19.3071 28.2025 19.3231 26.7304 19.3231 24.9008C19.3231 23.626 18.8964 22.794 18.4176 22.3699C21.3873 22.0312 24.5077 20.875 24.5077 15.6236C24.5077 14.1301 23.9903 12.9114 23.1342 11.9539C23.2729 11.6085 23.7303 10.2179 23.0035 8.33497C23.0035 8.33497 21.8861 7.96862 19.3404 9.73684C18.2749 9.43414 17.1335 9.28183 16 9.2765C14.8665 9.28183 13.7264 9.43414 12.6623 9.73684C10.1139 7.96862 8.99379 8.33497 8.99379 8.33497C8.2697 10.2179 8.72709 11.6085 8.86445 11.9539C8.01234 12.9114 7.49094 14.1301 7.49094 15.6236C7.49094 20.8616 10.6047 22.0356 13.5664 22.381C13.185 22.7224 12.8396 23.3246 12.7196 24.2087C11.9595 24.5581 10.0286 25.1627 8.8391 23.0731C8.8391 23.0731 8.13368 21.7595 6.79485 21.6635C6.79485 21.6635 5.49469 21.6462 6.70417 22.4943C6.70417 22.4943 7.57761 22.9143 8.18436 24.4945C8.18436 24.4945 8.96713 26.9348 12.6769 26.108C12.6836 27.2508 12.6956 28.3279 12.6956 28.6533C12.6956 29.0146 12.4502 29.4376 11.7848 29.3109C6.48547 27.504 2.665 22.378 2.665 16.3373C2.665 8.78567 8.63641 2.66499 16 2.66499Z" fill="#737373"/>
</g>
<defs>
<clipPath id="clip0_5_42">
<rect width="26.67" height="26.67" fill="white" transform="translate(2.665 2.66499)"/>
</clipPath>
</defs>
</svg>
