<svg width="24" height="24" viewBox="0 0 24 24" fill="none" xmlns="http://www.w3.org/2000/svg">
<g clip-path="url(#clip0_154_370)">
<path opacity="0.4" d="M21.9709 11.5847C21.9938 12.1259 21.9293 12.6692 21.7794 13.1917C21.6295 13.7142 21.3964 14.2096 21.0883 14.6572C20.7802 15.1047 20.4035 15.5002 19.9705 15.827L19.9601 15.8354L15.7989 18.9536C15.7989 18.9536 14.0317 17.6193 12 16.081L17.9638 11.5681C18.2323 11.3661 18.5134 11.1809 18.8027 11.0102C19.092 10.8374 19.3918 10.6834 19.6978 10.546C20.0059 10.4086 20.3202 10.2858 20.6387 10.1838C20.9593 10.0797 21.284 9.99435 21.615 9.92566L21.642 9.99852C21.8356 10.5064 21.9459 11.0414 21.9709 11.5847Z" fill="white"/>
<path d="M12.0001 16.0811C14.0318 17.6152 15.8011 18.9537 15.8011 18.9537L13.7549 20.5045L12.508 21.4454C12.4352 21.5016 12.354 21.5432 12.2686 21.5724C12.1833 21.6015 12.0917 21.6161 12.0001 21.6161C11.9106 21.6161 11.819 21.6015 11.7337 21.5724C11.6483 21.5432 11.5671 21.5016 11.4943 21.4454L10.2474 20.5045L8.20117 18.9537C8.20117 18.9537 9.96846 17.6152 12.0001 16.0811Z" fill="white"/>
<path opacity="0.4" d="M12.0001 16.0768C9.96634 17.6152 8.20114 18.9495 8.20114 18.9495L4.06498 15.8499L4.04 15.8333L4.03167 15.825C3.59661 15.4982 3.21984 15.1026 2.91176 14.6551C2.60369 14.2076 2.37054 13.7121 2.22067 13.1896C2.07079 12.6672 2.00626 12.1239 2.02916 11.5806C2.05414 11.0373 2.16447 10.5023 2.35806 9.99437L2.38512 9.92151C2.71609 9.9902 3.04082 10.0755 3.36139 10.1796C3.67988 10.2837 3.9942 10.4044 4.30228 10.5439C4.60828 10.6813 4.90803 10.8374 5.19737 11.0081C5.48672 11.1788 5.76565 11.3661 6.03626 11.5681L12.0001 16.0768Z" fill="white"/>
<path d="M8.20383 18.9516L8.20114 18.9496C8.20114 18.9496 9.96634 17.6152 12.0001 16.0768L6.03626 11.5681C5.76565 11.3661 5.48672 11.1788 5.19737 11.0081C4.90803 10.8374 4.60828 10.6813 4.30228 10.5439C3.9942 10.4044 3.67988 10.2837 3.36139 10.1796C3.04084 10.0756 2.71612 9.99021 2.38515 9.92152L5.10578 2.83372C5.11966 2.79903 5.13631 2.76572 5.15574 2.73381C5.17378 2.70189 5.19529 2.67205 5.22027 2.6443C5.24386 2.61515 5.26953 2.58809 5.29729 2.56311C5.32504 2.53952 5.35419 2.51732 5.38472 2.4965C5.44925 2.45695 5.51586 2.42781 5.58871 2.41116C5.65949 2.39242 5.73443 2.38409 5.80728 2.38826C5.88222 2.39242 5.95508 2.40699 6.02377 2.43405C6.09246 2.45903 6.15908 2.4965 6.21736 2.5423C6.24512 2.56589 6.27218 2.59087 6.29854 2.61724C6.32352 2.64499 6.34573 2.67483 6.36516 2.70674C6.38597 2.73727 6.40401 2.76989 6.41928 2.80458C6.43454 2.83789 6.44703 2.87258 6.45675 2.90866L8.29065 8.52277H15.7137L17.5476 2.90866C17.5573 2.87258 17.5705 2.83789 17.5871 2.80458C17.6024 2.77127 17.6204 2.73866 17.6412 2.70674C17.6607 2.67621 17.6829 2.64707 17.7079 2.61932C17.7328 2.59156 17.7599 2.56589 17.789 2.5423C17.8473 2.4965 17.9118 2.46111 17.9805 2.43405C18.0513 2.40907 18.1242 2.3945 18.197 2.39034C18.272 2.38618 18.3448 2.39242 18.4177 2.41116C18.4885 2.42989 18.5571 2.45903 18.6196 2.49858C18.6515 2.51801 18.6814 2.54022 18.7091 2.56519C18.7369 2.58879 18.7625 2.61515 18.7861 2.6443C18.8097 2.67344 18.8312 2.70397 18.8507 2.73589C18.8687 2.76781 18.8847 2.80111 18.8985 2.8358L21.615 9.92567C21.284 9.99436 20.9593 10.0797 20.6387 10.1838C20.3203 10.2858 20.0059 10.4086 19.6979 10.546C19.3919 10.6834 19.0921 10.8374 18.8028 11.0102C18.5134 11.1809 18.2324 11.3661 17.9639 11.5681L12.0001 16.081C10.0146 17.5803 8.28161 18.8927 8.20383 18.9516Z" fill="white"/>
</g>
<defs>
<clipPath id="clip0_154_370">
<rect width="20" height="19.232" fill="white" transform="translate(2 2.38403)"/>
</clipPath>
</defs>
</svg>
