<svg width="32" height="32" viewBox="0 0 32 32" fill="none" xmlns="http://www.w3.org/2000/svg">
<g clip-path="url(#clip0_5_58)">
<path d="M15.9036 28.3092L3.0784 18.7932C2.91222 18.6619 2.78708 18.4855 2.71835 18.2834L2.7163 18.2752C2.68348 18.1828 2.66501 18.0772 2.66501 17.9664C2.66501 17.8556 2.68348 17.75 2.71835 17.6505L2.7163 17.6577L4.217 13.1063L15.9036 28.3092ZM8.09441 4.0539L11.0425 13.1043H4.21598L7.11172 4.0539C7.18353 3.84157 7.3815 3.69181 7.61435 3.69181H7.62974C7.63794 3.69181 7.64615 3.69078 7.65538 3.69078C7.87284 3.69078 8.05338 3.84567 8.09338 4.05083V4.0539H8.09441ZM11.0425 13.1043H20.7657L15.9036 28.3092L11.0425 13.1043ZM29.0909 17.6546C29.1237 17.7469 29.1422 17.8526 29.1422 17.9633C29.1422 18.0741 29.1237 18.1798 29.0888 18.2793L29.0909 18.2721C29.0201 18.4824 28.895 18.6578 28.7308 18.7881L28.7288 18.7901L15.9036 28.3092L27.5912 13.1043L29.0909 17.6546ZM24.6955 4.0539L27.5912 13.1043H20.7657L23.7128 4.0539C23.7538 3.84567 23.9343 3.69078 24.1518 3.69078C24.161 3.69078 24.1703 3.69078 24.1795 3.69181H24.1785H24.1928C24.4257 3.69181 24.6226 3.84157 24.6944 4.0498L24.6955 4.0539Z" fill="#737373"/>
</g>
<defs>
<clipPath id="clip0_5_58">
<rect width="26.67" height="26.67" fill="white" transform="translate(2.665 2.66501)"/>
</clipPath>
</defs>
</svg>
