<svg width="32" height="32" viewBox="0 0 32 32" fill="none" xmlns="http://www.w3.org/2000/svg">
<path fill-rule="evenodd" clip-rule="evenodd" d="M16 22.6675C19.6823 22.6675 22.6675 19.6824 22.6675 16C22.6675 12.3176 19.6823 9.3325 16 9.3325C12.3176 9.3325 9.3325 12.3176 9.3325 16C9.3325 19.6824 12.3176 22.6675 16 22.6675ZM16 20.445C18.4549 20.445 20.445 18.4549 20.445 16C20.445 13.5451 18.4549 11.555 16 11.555C13.5451 11.555 11.555 13.5451 11.555 16C11.555 18.4549 13.5451 20.445 16 20.445Z" fill="#737373"/>
<path d="M22.6675 8.22125C22.0538 8.22125 21.5563 8.71878 21.5563 9.3325C21.5563 9.94622 22.0538 10.4438 22.6675 10.4438C23.2812 10.4438 23.7788 9.94622 23.7788 9.3325C23.7788 8.71878 23.2812 8.22125 22.6675 8.22125Z" fill="#737373"/>
<path fill-rule="evenodd" clip-rule="evenodd" d="M4.50296 7.41678C3.77625 8.84304 3.77625 10.7101 3.77625 14.4443V17.5558C3.77625 21.2899 3.77625 23.157 4.50296 24.5832C5.1422 25.8378 6.16219 26.8578 7.41677 27.497C8.84303 28.2238 10.7101 28.2238 14.4443 28.2238H17.5558C21.2899 28.2238 23.157 28.2238 24.5832 27.497C25.8378 26.8578 26.8578 25.8378 27.497 24.5832C28.2238 23.157 28.2238 21.2899 28.2238 17.5558V14.4443C28.2238 10.7101 28.2238 8.84304 27.497 7.41678C26.8578 6.1622 25.8378 5.14221 24.5832 4.50297C23.157 3.77626 21.2899 3.77626 17.5558 3.77626H14.4443C10.7101 3.77626 8.84303 3.77626 7.41677 4.50297C6.16219 5.14221 5.1422 6.1622 4.50296 7.41678ZM17.5558 5.99876H14.4443C12.5405 5.99876 11.2464 6.00049 10.246 6.08222C9.27165 6.16183 8.77336 6.30612 8.42577 6.48323C7.58938 6.9094 6.90939 7.58939 6.48322 8.42578C6.30611 8.77337 6.16182 9.27166 6.08221 10.246C6.00048 11.2464 5.99875 12.5405 5.99875 14.4443V17.5558C5.99875 19.4596 6.00048 20.7536 6.08221 21.754C6.16182 22.7284 6.30611 23.2267 6.48322 23.5743C6.90939 24.4106 7.58938 25.0906 8.42577 25.5168C8.77336 25.6939 9.27165 25.8382 10.246 25.9178C11.2464 25.9995 12.5405 26.0013 14.4443 26.0013H17.5558C19.4595 26.0013 20.7536 25.9995 21.7539 25.9178C22.7284 25.8382 23.2267 25.6939 23.5743 25.5168C24.4106 25.0906 25.0906 24.4106 25.5167 23.5743C25.6939 23.2267 25.8382 22.7284 25.9178 21.754C25.9995 20.7536 26.0013 19.4596 26.0013 17.5558V14.4443C26.0013 12.5405 25.9995 11.2464 25.9178 10.246C25.8382 9.27166 25.6939 8.77337 25.5167 8.42578C25.0906 7.58939 24.4106 6.9094 23.5743 6.48323C23.2267 6.30612 22.7284 6.16183 21.7539 6.08222C20.7536 6.00049 19.4595 5.99876 17.5558 5.99876Z" fill="#737373"/>
</svg>
