<svg width="24" height="24" viewBox="0 0 24 24" fill="none" xmlns="http://www.w3.org/2000/svg">
<g clip-path="url(#clip0_154_355)">
<path opacity="0.4" fill-rule="evenodd" clip-rule="evenodd" d="M3.47625 2.00061H20.5187C21.3356 2.00061 22 2.64624 22 3.44124V20.5562C22 21.3531 21.3356 22 20.52 22H3.47625C2.6625 22 2 21.3531 2 20.5562V3.44124C2 2.64624 2.6625 2.00061 3.47625 2.00061ZM7.9375 9.49813H4.96563V19.0419H7.9375V9.49813ZM8.16813 6.46688C8.16813 5.51876 7.3975 4.74813 6.44938 4.74813C6.22351 4.74789 5.99981 4.79216 5.79106 4.87843C5.58232 4.96469 5.39262 5.09125 5.23282 5.25088C5.07302 5.4105 4.94625 5.60006 4.85976 5.80871C4.77327 6.01736 4.72875 6.24101 4.72875 6.46688C4.72991 6.92297 4.91164 7.36004 5.23421 7.68249C5.55677 8.00494 5.99391 8.18652 6.45 8.18751C7.3975 8.18751 8.16813 7.41501 8.16813 6.46688ZM9.7975 9.49813H9.79313L9.7975 9.49626V9.49813ZM9.7975 9.49813V19.04H12.7613V14.3188C12.7613 13.075 12.9988 11.8688 14.5425 11.8688C16.0638 11.8688 16.0838 13.2938 16.0838 14.4V19.0425H19.0481V13.8075C19.0481 11.2381 18.4938 9.26126 15.49 9.26126C14.0413 9.26126 13.0737 10.0525 12.6775 10.8025H12.6381V9.49813H9.7975Z" fill="white"/>
<path d="M4.96563 9.49817H7.93751V19.0419H4.96563V9.49817ZM6.44938 4.74817C7.39751 4.74817 8.16813 5.5188 8.16813 6.46692C8.16813 7.41505 7.39751 8.18754 6.45001 8.18754C5.99392 8.18655 5.55678 8.00498 5.23422 7.68253C4.91165 7.36008 4.72992 6.92301 4.72876 6.46692C4.72876 6.24105 4.77328 6.0174 4.85977 5.80875C4.94626 5.6001 5.07303 5.41054 5.23283 5.25092C5.39263 5.09129 5.58233 4.96473 5.79107 4.87846C5.99982 4.7922 6.22352 4.74792 6.44938 4.74817ZM9.79313 9.49817H12.6381V10.8025H12.6775C13.0738 10.0525 14.0413 9.26129 15.49 9.26129C18.4938 9.26129 19.0481 11.2382 19.0481 13.8075V19.0425H16.0838V14.4C16.0838 13.2938 16.0638 11.8688 14.5425 11.8688C12.9988 11.8688 12.7613 13.075 12.7613 14.3188V19.04H9.79751V9.49629L9.79313 9.49817Z" fill="white"/>
</g>
<defs>
<clipPath id="clip0_154_355">
<rect width="20" height="20" fill="white" transform="translate(2 2)"/>
</clipPath>
</defs>
</svg>
