<svg width="32" height="32" viewBox="0 0 32 32" fill="none" xmlns="http://www.w3.org/2000/svg">
<g clip-path="url(#clip0_5_31)">
<path fill-rule="evenodd" clip-rule="evenodd" d="M17.1078 14.643V14.6041C17.0999 14.6171 17.0888 14.6302 17.0819 14.643H17.1078Z" fill="#737373"/>
<path fill-rule="evenodd" clip-rule="evenodd" d="M2.665 2.66499V29.335H29.335V2.66499H2.665ZM10.9604 24.8217H7.00348V12.9172H10.9604V24.8217ZM8.98192 11.2924H8.95578C7.62843 11.2924 6.76808 10.3779 6.76808 9.2349C6.76808 8.06681 7.65358 7.17826 9.00783 7.17826C10.3624 7.17826 11.1948 8.06681 11.2207 9.2349C11.2207 10.3779 10.3624 11.2924 8.98192 11.2924ZM25.2319 24.8217H21.274V18.4528C21.274 16.8531 20.7021 15.7611 19.2696 15.7611C18.1756 15.7611 17.5255 16.4963 17.2391 17.2085C17.135 17.4629 17.1078 17.8165 17.1078 18.1733V24.8218H13.1491C13.1491 24.8218 13.2022 14.034 13.1491 12.9172H17.1078V14.6041C17.6338 13.7948 18.5724 12.6378 20.6749 12.6378C23.2796 12.6378 25.2319 14.3388 25.2319 17.9951V24.8217Z" fill="#737373"/>
</g>
<defs>
<clipPath id="clip0_5_31">
<rect x="2.665" y="2.66499" width="26.67" height="26.67" rx="4" fill="white"/>
</clipPath>
</defs>
</svg>
