<svg width="32" height="32" viewBox="0 0 32 32" fill="none" xmlns="http://www.w3.org/2000/svg">
<path fill-rule="evenodd" clip-rule="evenodd" d="M27.6681 22.6675C27.6681 22.8367 27.6356 22.9967 27.5889 23.1492L20.1672 15.1666L27.6681 9.3325V22.6675ZM5.6287 24.2894L13.1496 16.275L16 18.4295L18.727 16.2617L26.3713 24.2894C26.2521 24.3169 5.74789 24.3169 5.6287 24.2894ZM4.33188 22.6675V9.3325L11.8328 15.1666L4.41105 23.1492C4.36438 22.9967 4.33188 22.8367 4.33188 22.6675ZM26.8347 7.66562L16 16L5.16531 7.66562H26.8347ZM26.0013 5.99875H5.99875C4.15769 5.99875 2.665 7.49144 2.665 9.3325V22.6675C2.665 24.5086 4.15769 26.0012 5.99875 26.0012H26.0013C27.8423 26.0012 29.335 24.5086 29.335 22.6675V9.3325C29.335 7.49144 27.8423 5.99875 26.0013 5.99875Z" fill="#737373"/>
</svg>
