<svg width="32" height="32" viewBox="0 0 32 32" fill="none" xmlns="http://www.w3.org/2000/svg">
<g clip-path="url(#clip0_5_64)">
<path fill-rule="evenodd" clip-rule="evenodd" d="M20.0513 2.66502C20.6694 2.66502 21.2765 2.91603 21.7142 3.35373L26.2873 7.92686C26.7313 8.37083 26.976 8.96227 26.976 9.58981V29.335H5.01252V2.66502H20.0513ZM19.1319 4.23384H6.58133V27.7662H25.4072V10.5091H19.1319V4.23383L19.1319 4.23384ZM20.7007 4.55859V8.94032H25.0825L20.7007 4.55859Z" fill="#737373"/>
<path fill-rule="evenodd" clip-rule="evenodd" d="M15.1735 12.0783C15.5453 12.0783 15.8732 12.254 16.1179 12.6038C16.6999 13.4243 16.6592 14.2982 16.4442 15.4748C16.3705 15.8795 16.4458 16.289 16.6701 16.6294C16.987 17.1126 17.4436 17.7778 17.8922 18.341C18.2217 18.7568 18.7284 18.978 19.2414 18.9089C19.5709 18.8634 19.9678 18.8258 20.3757 18.8258C22.1955 18.8258 22.059 19.4753 22.2238 20.0714C22.3147 20.4323 22.2693 20.7476 22.0826 20.9813C21.8504 21.2967 21.3719 21.4598 20.6722 21.4598C19.8972 21.4598 19.6415 21.3281 18.9669 21.1131C18.5857 20.9908 18.1903 20.9657 17.8044 21.0676C17.0341 21.2684 15.7633 21.5744 14.7028 21.7203C14.1365 21.7987 13.6219 22.0905 13.2799 22.5659C12.5096 23.6327 11.7958 24.6289 10.6647 24.6289C10.3729 24.6289 10.1046 24.5237 9.8834 24.3135C9.55708 23.9872 9.41746 23.6248 9.48649 23.2044C9.67788 21.9132 11.2655 21.1931 12.21 20.6676C12.4327 20.5436 12.6085 20.3538 12.7183 20.1185L14.2165 16.8789C14.3232 16.6514 14.3561 16.3988 14.3169 16.1494C14.1428 15.0512 13.8855 13.2047 14.5773 12.3701C14.7295 12.1834 14.9397 12.0783 15.1735 12.0783ZM15.459 16.8004C14.8581 18.5591 13.796 20.4715 13.6533 20.6943C14.935 20.0918 17.4859 19.7875 17.4859 19.7875C16.2026 18.5512 15.459 16.8004 15.459 16.8004Z" fill="#737373"/>
</g>
<defs>
<clipPath id="clip0_5_64">
<rect width="26.67" height="26.67" fill="white" transform="translate(2.665 2.66501)"/>
</clipPath>
</defs>
</svg>
