<svg width="95" height="95" viewBox="0 0 95 95" fill="none" xmlns="http://www.w3.org/2000/svg">
<g clip-path="url(#clip0)">
<path fill-rule="evenodd" clip-rule="evenodd" d="M94.1665 34.4726C92.5924 25.5315 88.1215 17.3691 81.4539 11.2635C73.8241 3.97033 63.6921 -0.0654312 53.1781 0.00076494C51.0461 -0.0114662 48.9171 0.160042 46.8141 0.513415C42.3063 1.22739 37.9477 2.69211 33.9166 4.84764C31.6741 6.03887 29.5529 7.44893 27.5834 9.05759C26.3895 10.0258 25.2525 11.0632 24.178 12.1646C23.9058 12.4494 23.6284 12.729 23.3511 13.0086C22.7963 13.5679 22.2416 14.1271 21.728 14.7278L21.6586 14.8089C20.9275 15.6639 20.4462 16.2267 19.8634 16.9648C18.6831 18.4839 17.607 20.0826 16.6429 21.7496C15.3376 23.9869 14.2439 26.3431 13.3762 28.7869C12.8429 30.2716 12.3953 31.7862 12.0356 33.3231C11.6658 34.9697 11.373 36.632 11.1419 38.2942C11.0255 39.0566 10.9882 39.8367 10.9504 40.6278L10.9504 40.6278C10.9381 40.8845 10.9258 41.1424 10.9107 41.4012C10.8894 41.5851 10.8533 41.7669 10.8029 41.9449V45.0519C10.8645 45.1969 10.8439 45.3557 10.8234 45.5145C10.8131 45.5939 10.8029 45.6733 10.8029 45.7509C10.823 47.0153 10.9311 48.2768 11.1264 49.5259C11.2949 50.86 11.5419 52.1828 11.8661 53.4873C11.8661 53.5753 11.8901 53.6616 11.914 53.7479C11.962 53.9205 12.0099 54.0932 11.8661 54.2796C11.6594 54.5285 11.4506 54.7731 11.242 55.0174C10.8908 55.4287 10.5403 55.8392 10.2019 56.268C9.38064 57.3162 8.61922 58.4105 7.92134 59.5459C7.86511 59.6193 7.83461 59.7095 7.83461 59.8022C7.83461 59.895 7.86511 59.9851 7.92134 60.0585C8.27153 60.6323 8.61178 61.216 8.95621 61.8069L8.9564 61.8072C9.21813 62.2563 9.48227 62.7094 9.75503 63.1655C11.5311 65.9795 13.4817 68.6776 15.5951 71.2437C16.6198 72.519 17.6756 73.6896 18.7455 74.8758L18.7455 74.8759L18.7476 74.8782C18.9802 75.1362 19.2136 75.3949 19.4474 75.6556C20.0792 76.3391 20.7572 76.9916 21.4352 77.6285C21.6634 77.8429 21.9126 78.0801 22.1727 78.3278L22.1734 78.3285L22.1734 78.3286C22.6859 78.8166 23.2409 79.3451 23.762 79.8189C24.8076 80.7677 25.8822 81.658 26.9718 82.5608L27.0749 82.6462C28.5234 83.8269 30.0027 84.9454 31.5436 86.0018C33.0845 87.0581 34.6254 88.0679 36.1664 89C36.2951 89.1047 36.4555 89.1617 36.6209 89.1617C36.7863 89.1617 36.9467 89.1047 37.0755 89C38.7388 87.9081 40.2877 86.6484 41.6982 85.2406C41.7157 85.2251 41.7329 85.2091 41.75 85.1931C41.8534 85.0965 41.9534 85.003 42.0989 85.0697C42.3869 85.1566 42.6803 85.2241 42.9772 85.2716C44.4528 85.6428 45.9506 85.9178 47.4613 86.095C48.204 86.1886 48.9605 86.2265 49.7215 86.2646L49.7219 86.2646C50.0976 86.2835 50.4745 86.3023 50.8513 86.328H51.8991C52.2115 86.2927 52.5267 86.2927 52.8391 86.328C53.0765 86.2656 53.314 86.2868 53.5468 86.3076C53.6615 86.3178 53.775 86.328 53.8869 86.328C54.8423 86.328 55.7822 86.2348 56.7222 86.1261C59.013 85.8653 61.2799 85.4238 63.5022 84.8056C67.0476 83.805 70.4426 82.3262 73.5953 80.4092C77.2573 78.1942 80.5621 75.4282 83.3955 72.2068C88.0628 67.2502 91.478 61.2339 93.3528 54.6661C95.2275 48.0983 95.5066 41.1721 94.1665 34.4726ZM77.9406 68.6493C73.3998 73.3874 67.5824 76.6817 61.2063 78.1256C58.2292 78.8665 55.1634 79.1803 52.0994 79.0577C43.5282 78.8203 35.3528 75.3695 29.1706 69.3795C23.6607 64.2453 19.9515 57.4478 18.5999 50.0075C17.4693 44.6048 17.5961 39.0116 18.9703 33.6666C20.3445 28.3217 22.9288 23.3706 26.5202 19.2019C31.4142 13.3769 38.1328 9.40935 45.566 7.95462C48.2566 7.36049 51.0114 7.11513 53.7636 7.22448C61.4052 7.43976 68.7576 10.2167 74.6585 15.1162C80.8173 20.0859 85.1555 26.9852 86.9858 34.7212C87.6718 37.5945 87.998 40.5433 87.9566 43.4984C88.0219 52.8916 84.425 61.9349 77.9406 68.6804V68.6493ZM14.9009 91.3146C13.9892 91.3283 13.079 91.2345 12.1889 91.035C10.7644 90.6421 9.43667 89.9543 8.29039 89.0154C6.74492 87.7986 5.49579 86.2417 4.63842 84.4637C3.98223 83.0031 3.68617 81.4042 3.77551 79.8033C3.79606 79.2795 3.86833 78.7591 3.99124 78.2498C4.02439 78.1125 4.02196 77.969 3.98418 77.833C3.9464 77.6969 3.87454 77.573 3.77551 77.4731C2.44158 75.5404 1.21717 73.5332 0.108128 71.4611C0.0377979 71.3612 1.53799e-05 71.2418 1.53799e-05 71.1193C1.53799e-05 70.9968 0.0377979 70.8774 0.108128 70.7775C0.731977 69.7692 1.42178 68.8039 2.17296 67.8881C2.83555 67.0802 3.52896 66.3346 4.25319 65.5578L4.48433 65.3248C4.76169 65.0607 4.9466 64.9675 5.23938 65.3248C6.49168 67.2051 7.8822 68.9926 9.23168 70.7273C9.44307 70.999 9.65344 71.2695 9.86212 71.5387C11.1873 73.1699 12.5895 74.7545 14.0072 76.3235C15.4248 77.8925 16.75 79.2596 18.1831 80.6422C20.0784 82.4908 22.0354 84.2618 24.1002 85.9085C25.7644 87.2445 27.444 88.5183 29.2006 89.699C29.4163 89.8388 29.3547 89.9165 29.2006 90.0563C27.5183 91.901 25.6252 93.5384 23.5609 94.9342C23.5027 94.9771 23.4326 95.0003 23.3605 95.0003C23.2885 95.0003 23.2183 94.9771 23.1602 94.9342C21.2474 93.8438 19.4002 92.6404 17.6283 91.3301C17.4307 91.1305 17.1828 90.9888 16.9113 90.9204C16.6399 90.852 16.355 90.8594 16.0874 90.9418C15.8045 91.0117 15.5155 91.0534 15.2245 91.066C15.2352 91.2382 15.1497 91.2539 15.045 91.273C14.9985 91.2815 14.9483 91.2907 14.9009 91.3146ZM70.7292 20.738C65.5323 16.5352 59.0689 14.2451 52.4066 14.2458C51.2876 14.2499 50.1703 14.333 49.0628 14.4944C48.431 14.5721 47.7992 14.6497 47.1829 14.7896C42.8138 15.6208 38.693 17.4542 35.1392 20.148C31.5854 22.8418 28.694 26.3238 26.6887 30.3244C25.5764 32.3393 24.8802 34.5603 24.6418 36.8537C24.4035 39.147 24.628 41.4653 25.3019 43.6689C25.9963 46.0932 27.2315 48.3252 28.9131 50.1943C30.5947 52.0633 32.6781 53.5198 35.0039 54.4523C37.3296 55.3848 39.8362 55.7686 42.3317 55.5743C44.8272 55.3801 47.2456 54.6129 49.4018 53.3316C51.0243 52.2516 52.9061 51.6338 54.8483 51.5436C56.7904 51.4534 58.7206 51.894 60.4347 52.8189C62.844 54.0466 64.6805 56.1769 65.5506 58.7532C65.931 59.8529 66.5913 60.8325 67.4653 61.594C68.3393 62.3555 69.3963 62.8723 70.5307 63.0925C71.665 63.3127 72.8368 63.2287 73.9288 62.8489C75.0209 62.469 75.9947 61.8067 76.753 60.9281C77.2803 60.2456 77.7299 59.5057 78.0936 58.7222C81.6672 52.2152 82.7004 44.597 80.9906 37.3617C79.5459 30.8048 75.9262 24.9408 70.7292 20.738ZM66.9066 69.1771C66.1949 69.8583 65.3092 70.3263 64.3487 70.5287L64.3641 70.5442C63.5189 70.8265 62.6349 70.9733 61.7445 70.9792C59.7066 71.0135 57.7057 70.4268 56.0039 69.296C54.3021 68.1651 52.9785 66.5427 52.2063 64.6409C51.8601 63.8709 51.6926 63.0314 51.7166 62.1863C51.7405 61.3412 51.9553 60.5127 52.3445 59.7639C52.7337 59.015 53.2872 58.3655 53.9628 57.8646C54.6384 57.3638 55.4184 57.0248 56.2435 56.8735C57.4499 56.6846 58.6843 56.9116 59.7469 57.5177C60.8095 58.1238 61.6382 59.0736 62.0989 60.2135C62.3826 61.0781 62.8448 61.8723 63.4549 62.5437C64.0035 63.125 64.7029 63.5395 65.4735 63.7399C66.0056 63.9072 66.4869 64.2078 66.8725 64.6135C67.258 65.0192 67.5353 65.5168 67.6785 66.0598C67.8216 66.6028 67.8259 67.1736 67.6909 67.7187C67.5559 68.2639 67.2861 68.7656 66.9066 69.1771Z" fill="url(#paint0_linear)"/>
</g>
<defs>
<linearGradient id="paint0_linear" x1="2.28914" y1="93.8557" x2="95.0003" y2="0.00028456" gradientUnits="userSpaceOnUse">
<stop stop-color="#ED1C7D"/>
<stop offset="0.5" stop-color="#CD33D5"/>
<stop offset="1" stop-color="#5824FE"/>
</linearGradient>
<clipPath id="clip0">
<rect width="95" height="95" fill="white"/>
</clipPath>
</defs>
</svg>