<svg width="24" height="24" viewBox="0 0 24 24" fill="none" xmlns="http://www.w3.org/2000/svg">
<g clip-path="url(#clip0_11_133)">
<path d="M15.0213 16.7362H17.6116L13.4766 6.00459H10.6126L6.47756 16.7362H9.06806L9.74381 14.9183H13.6508L12.9436 12.9068H10.3711L12.0445 8.28928L15.0213 16.7362ZM23.563 8.79075C23.5412 8.71183 23.504 8.638 23.4536 8.57347C23.4032 8.50894 23.3406 8.45498 23.2693 8.41469C23.1981 8.37439 23.1195 8.34855 23.0383 8.33865C22.957 8.32875 22.8746 8.33497 22.7957 8.35697C22.6364 8.40117 22.5012 8.50683 22.4199 8.6507C22.3385 8.79456 22.3176 8.96486 22.3618 9.12413C22.6218 10.0606 22.7536 11.0281 22.7535 12C22.7535 17.9295 17.9295 22.7533 12 22.7533C6.0705 22.7533 1.24659 17.9295 1.24659 12C1.24659 6.07041 6.0705 1.2465 12 1.2465C14.5118 1.2465 16.9423 2.13881 18.8605 3.72675C18.7837 3.91002 18.7443 4.10676 18.7445 4.30547C18.7445 5.13375 19.4159 5.80519 20.2442 5.80519C21.0725 5.80519 21.7439 5.13375 21.7439 4.30547C21.7439 3.47719 21.0725 2.80575 20.2442 2.80575C20.0847 2.80575 19.9312 2.83116 19.7871 2.87728C17.6271 1.0365 14.8606 0 12 0C5.38322 0 0 5.38313 0 12C0 18.6168 5.38322 23.9999 12 23.9999C18.6168 23.9999 24 18.6168 24 12C24.0001 10.9154 23.8531 9.83583 23.563 8.79075Z" fill="#112B49"/>
</g>
<defs>
<clipPath id="clip0_11_133">
<rect width="24" height="24" fill="white"/>
</clipPath>
</defs>
</svg>
