<svg width="24" height="24" viewBox="0 0 24 24" fill="none" xmlns="http://www.w3.org/2000/svg">
<g clip-path="url(#clip0_11_82)">
<path d="M6.82105 10.0579C6.82105 10.35 6.85263 10.5869 6.9079 10.7605C6.97105 10.9342 7.05 11.1237 7.16053 11.329C7.2 11.3921 7.21579 11.4553 7.21579 11.5105C7.21579 11.5895 7.16842 11.6684 7.06579 11.7474L6.56842 12.079C6.49737 12.1263 6.42632 12.15 6.36316 12.15C6.28421 12.15 6.20526 12.1105 6.12632 12.0395C6.01579 11.9211 5.92105 11.7948 5.84211 11.6684C5.76316 11.5342 5.68421 11.3842 5.59737 11.2026C4.98158 11.929 4.2079 12.2921 3.27632 12.2921C2.61316 12.2921 2.08421 12.1026 1.69737 11.7237C1.31053 11.3448 1.11316 10.8395 1.11316 10.2079C1.11316 9.53686 1.35 8.99212 1.83158 8.5816C2.31316 8.17107 2.95263 7.96581 3.76579 7.96581C4.03421 7.96581 4.31053 7.98949 4.60263 8.02896C4.89474 8.06844 5.19474 8.1316 5.51053 8.20265V7.62633C5.51053 7.02633 5.38421 6.60791 5.13948 6.36318C4.88684 6.11844 4.46053 6.00002 3.85263 6.00002C3.57632 6.00002 3.29211 6.0316 3 6.10265C2.7079 6.1737 2.42369 6.26054 2.14737 6.37107C2.02105 6.42633 1.92632 6.45791 1.87105 6.4737C1.81579 6.48949 1.77632 6.49739 1.74474 6.49739C1.63421 6.49739 1.57895 6.41844 1.57895 6.25265V5.86581C1.57895 5.73949 1.59474 5.64475 1.63421 5.58949C1.67369 5.53423 1.74474 5.47896 1.85526 5.4237C2.13158 5.2816 2.46316 5.16318 2.85 5.06844C3.23684 4.96581 3.64737 4.91844 4.08158 4.91844C5.02105 4.91844 5.7079 5.1316 6.15 5.55791C6.58421 5.98423 6.80526 6.6316 6.80526 7.50002V10.0579H6.82105ZM3.61579 11.2579C3.87632 11.2579 4.14474 11.2105 4.42895 11.1158C4.71316 11.0211 4.96579 10.8474 5.17895 10.6105C5.30526 10.4605 5.4 10.2948 5.44737 10.1053C5.49474 9.91581 5.52632 9.68686 5.52632 9.41844V9.08686C5.29737 9.0316 5.05263 8.98423 4.8 8.95265C4.54737 8.92107 4.30263 8.90528 4.0579 8.90528C3.52895 8.90528 3.14211 9.00791 2.88158 9.22107C2.62105 9.43423 2.49474 9.73423 2.49474 10.129C2.49474 10.5 2.58947 10.7763 2.78684 10.9658C2.97632 11.1632 3.25263 11.2579 3.61579 11.2579ZM9.95526 12.1105C9.81316 12.1105 9.71842 12.0869 9.65527 12.0316C9.59211 11.9842 9.53684 11.8737 9.48948 11.7237L7.63421 5.62107C7.58684 5.46318 7.56316 5.36054 7.56316 5.30528C7.56316 5.17896 7.62632 5.10791 7.75263 5.10791H8.52632C8.67632 5.10791 8.77895 5.1316 8.83421 5.18686C8.89737 5.23423 8.94474 5.34475 8.99211 5.49475L10.3184 10.7211L11.55 5.49475C11.5895 5.33686 11.6368 5.23423 11.7 5.18686C11.7632 5.13949 11.8737 5.10791 12.0158 5.10791H12.6474C12.7974 5.10791 12.9 5.1316 12.9632 5.18686C13.0263 5.23423 13.0816 5.34475 13.1132 5.49475L14.3605 10.7842L15.7263 5.49475C15.7737 5.33686 15.8289 5.23423 15.8842 5.18686C15.9474 5.13949 16.05 5.10791 16.1921 5.10791H16.9263C17.0526 5.10791 17.1237 5.17107 17.1237 5.30528C17.1237 5.34475 17.1158 5.38423 17.1079 5.4316C17.1 5.47896 17.0842 5.54212 17.0526 5.62896L15.15 11.7316C15.1026 11.8895 15.0474 11.9921 14.9842 12.0395C14.9211 12.0869 14.8184 12.1184 14.6842 12.1184H14.0053C13.8553 12.1184 13.7526 12.0948 13.6895 12.0395C13.6263 11.9842 13.5711 11.8816 13.5395 11.7237L12.3158 6.6316L11.1 11.7158C11.0605 11.8737 11.0132 11.9763 10.95 12.0316C10.8868 12.0869 10.7763 12.1105 10.6342 12.1105H9.95526ZM20.1 12.3237C19.6895 12.3237 19.2789 12.2763 18.8842 12.1816C18.4895 12.0869 18.1816 11.9842 17.9763 11.8658C17.85 11.7948 17.7632 11.7158 17.7316 11.6448C17.7 11.5737 17.6842 11.4948 17.6842 11.4237V11.0211C17.6842 10.8553 17.7474 10.7763 17.8658 10.7763C17.9132 10.7763 17.9605 10.7842 18.0079 10.8C18.0553 10.8158 18.1263 10.8474 18.2053 10.879C18.4737 10.9974 18.7658 11.0921 19.0737 11.1553C19.3895 11.2184 19.6974 11.25 20.0132 11.25C20.5105 11.25 20.8974 11.1632 21.1658 10.9895C21.4342 10.8158 21.5763 10.5632 21.5763 10.2395C21.5763 10.0184 21.5053 9.83686 21.3632 9.68686C21.2211 9.53686 20.9526 9.40265 20.5658 9.27633L19.4211 8.92107C18.8447 8.73949 18.4184 8.47107 18.1579 8.11581C17.8974 7.76844 17.7632 7.3816 17.7632 6.97107C17.7632 6.63949 17.8342 6.34739 17.9763 6.09475C18.1184 5.84212 18.3079 5.62107 18.5447 5.44739C18.7816 5.26581 19.05 5.1316 19.3658 5.03686C19.6816 4.94212 20.0132 4.90265 20.3605 4.90265C20.5342 4.90265 20.7158 4.91054 20.8895 4.93423C21.0711 4.95791 21.2368 4.98949 21.4026 5.02107C21.5605 5.06054 21.7105 5.10002 21.8526 5.14739C21.9947 5.19475 22.1053 5.24212 22.1842 5.28949C22.2947 5.35265 22.3737 5.41581 22.4211 5.48686C22.4684 5.55002 22.4921 5.63686 22.4921 5.74739V6.11844C22.4921 6.28423 22.4289 6.37107 22.3105 6.37107C22.2474 6.37107 22.1447 6.33949 22.0105 6.27633C21.5605 6.07107 21.0553 5.96844 20.4947 5.96844C20.0447 5.96844 19.6895 6.03949 19.4447 6.18949C19.2 6.33949 19.0737 6.56844 19.0737 6.89212C19.0737 7.11318 19.1526 7.30265 19.3105 7.45265C19.4684 7.60265 19.7605 7.75265 20.1789 7.88686L21.3 8.24212C21.8684 8.4237 22.2789 8.67633 22.5237 9.00002C22.7684 9.3237 22.8868 9.69475 22.8868 10.1053C22.8868 10.4448 22.8158 10.7526 22.6816 11.0211C22.5395 11.2895 22.35 11.5263 22.1053 11.7158C21.8605 11.9132 21.5684 12.0553 21.2289 12.1579C20.8737 12.2684 20.5026 12.3237 20.1 12.3237Z" fill="#252F3E"/>
<path fill-rule="evenodd" clip-rule="evenodd" d="M21.5921 16.1605C18.9948 18.0789 15.2211 19.0974 11.9763 19.0974C7.42898 19.0974 3.33161 17.4158 0.236873 14.621C-0.00786374 14.4 0.213189 14.1 0.505294 14.2737C3.85266 16.2158 7.98161 17.3921 12.2527 17.3921C15.1342 17.3921 18.3 16.7921 21.2132 15.5605C21.6474 15.3631 22.0185 15.8447 21.5921 16.1605Z" fill="#FF9900"/>
<path fill-rule="evenodd" clip-rule="evenodd" d="M22.6737 14.9289C22.3422 14.5026 20.479 14.7237 19.6343 14.8263C19.3816 14.8579 19.3422 14.6368 19.5711 14.471C21.0553 13.4289 23.4948 13.7289 23.779 14.0763C24.0632 14.4316 23.7 16.871 22.3106 18.0395C22.0974 18.221 21.8922 18.1263 21.9869 17.8895C22.3027 17.1079 23.0053 15.3474 22.6737 14.9289Z" fill="#FF9900"/>
</g>
<defs>
<clipPath id="clip0_11_82">
<rect width="24" height="14.3684" fill="white" transform="translate(0 4.8158)"/>
</clipPath>
</defs>
</svg>
