<svg width="24" height="24" viewBox="0 0 24 24" fill="none" xmlns="http://www.w3.org/2000/svg">
<g clip-path="url(#clip0_11_73)">
<path d="M24 12C24 5.37258 18.6274 0 12 0C5.37258 0 0 5.37258 0 12C0 18.6274 5.37258 24 12 24C18.6274 24 24 18.6274 24 12Z" fill="url(#paint0_linear_11_73)"/>
<path d="M6.49584 12.5127L14.6755 4.38819C14.8286 4.2369 15.0742 4.42181 14.9715 4.61045L11.9271 10.1911C11.9118 10.2195 11.9041 10.2514 11.9047 10.2836C11.9054 10.3159 11.9144 10.3474 11.9308 10.3752C11.9473 10.4029 11.9707 10.4259 11.9986 10.4419C12.0266 10.458 12.0583 10.4665 12.0906 10.4666H17.3519C17.3895 10.4666 17.4262 10.4778 17.4573 10.499C17.4884 10.5202 17.5124 10.5502 17.5261 10.5852C17.5399 10.6203 17.5427 10.6586 17.5343 10.6953C17.5258 10.7319 17.5065 10.7652 17.4789 10.7907L8.25989 19.3952C8.09366 19.5493 7.84806 19.3317 7.98067 19.1487L12.3455 13.1281C12.3659 13.1002 12.3781 13.0673 12.3809 13.0328C12.3836 12.9984 12.3768 12.9639 12.3611 12.9331C12.3454 12.9024 12.3215 12.8765 12.2921 12.8585C12.2626 12.8405 12.2287 12.8311 12.1942 12.8311H6.62751C6.59069 12.831 6.55473 12.82 6.52416 12.7994C6.49359 12.7789 6.46977 12.7498 6.4557 12.7157C6.44163 12.6817 6.43793 12.6443 6.44507 12.6082C6.45222 12.572 6.46988 12.5388 6.49584 12.5127Z" fill="white"/>
</g>
<defs>
<linearGradient id="paint0_linear_11_73" x1="12" y1="0" x2="12" y2="24" gradientUnits="userSpaceOnUse">
<stop stop-color="#7BCBD4"/>
<stop offset="1" stop-color="#29C6B7"/>
</linearGradient>
<clipPath id="clip0_11_73">
<rect width="24" height="24" fill="white"/>
</clipPath>
</defs>
</svg>
