<svg width="685" height="684" viewBox="0 0 685 684" fill="none" xmlns="http://www.w3.org/2000/svg">
<path fill-rule="evenodd" clip-rule="evenodd" d="M25.9983 251.933L438.998 144.233V539.098L270.965 492.932C273.756 534.398 243.262 570.648 201.932 574.998C159.839 570.445 129.133 533.038 132.865 490.865V462.165L25.9983 431.398V251.933Z" stroke="black" stroke-width="50" stroke-linecap="round" stroke-linejoin="round"/>
<path d="M659.332 346.898C673.138 346.898 684.332 335.705 684.332 321.898C684.332 308.092 673.138 296.898 659.332 296.898V346.898ZM597.198 296.898C583.392 296.898 572.198 308.092 572.198 321.898C572.198 335.705 583.392 346.898 597.198 346.898V296.898ZM568.742 517.162C578.442 526.988 594.268 527.088 604.095 517.388C613.922 507.688 614.022 491.862 604.322 482.035L568.742 517.162ZM560.455 437.602C550.755 427.775 534.928 427.675 525.102 437.375C515.275 447.075 515.175 462.902 524.875 472.728L560.455 437.602ZM604.375 161.809C614.085 151.991 613.995 136.162 604.175 126.454C594.358 116.747 578.528 116.836 568.822 126.654L604.375 161.809ZM524.888 171.088C515.178 180.906 515.268 196.735 525.088 206.442C534.905 216.15 550.735 216.061 560.442 206.242L524.888 171.088ZM463.998 539.098C463.998 525.292 452.805 514.098 438.998 514.098C425.192 514.098 413.998 525.292 413.998 539.098H463.998ZM413.998 574.998C413.998 588.805 425.192 599.998 438.998 599.998C452.805 599.998 463.998 588.805 463.998 574.998H413.998ZM413.998 144.232C413.998 158.039 425.192 169.232 438.998 169.232C452.805 169.232 463.998 158.039 463.998 144.232H413.998ZM463.998 108.332C463.998 94.5247 452.805 83.3317 438.998 83.3317C425.192 83.3317 413.998 94.5247 413.998 108.332H463.998ZM0.998291 251.932C0.998291 265.739 12.1913 276.932 25.9983 276.932C39.8053 276.932 50.9983 265.739 50.9983 251.932H0.998291ZM50.9983 216.032C50.9983 202.225 39.8053 191.032 25.9983 191.032C12.1913 191.032 0.998291 202.225 0.998291 216.032H50.9983ZM0.998291 467.298C0.998291 481.105 12.1913 492.298 25.9983 492.298C39.8053 492.298 50.9983 481.105 50.9983 467.298H0.998291ZM50.9983 431.398C50.9983 417.592 39.8053 406.398 25.9983 406.398C12.1913 406.398 0.998291 417.592 0.998291 431.398H50.9983ZM138.301 437.762C124.825 434.762 111.466 443.252 108.463 456.728C105.461 470.205 113.952 483.565 127.429 486.568L138.301 437.762ZM265.529 517.335C279.005 520.335 292.365 511.845 295.368 498.368C298.368 484.892 289.878 471.532 276.402 468.528L265.529 517.335ZM659.332 296.898H597.198V346.898H659.332V296.898ZM604.322 482.035L560.455 437.602L524.875 472.728L568.742 517.162L604.322 482.035ZM568.822 126.654L524.888 171.088L560.442 206.242L604.375 161.809L568.822 126.654ZM413.998 539.098V574.998H463.998V539.098H413.998ZM463.998 144.232V108.332H413.998V144.232H463.998ZM50.9983 251.932V216.032H0.998291V251.932H50.9983ZM50.9983 467.298V431.398H0.998291V467.298H50.9983ZM127.429 486.568L265.529 517.335L276.402 468.528L138.301 437.762L127.429 486.568Z" fill="black"/>
</svg>
