<svg width="24" height="24" viewBox="0 0 24 24" fill="none" xmlns="http://www.w3.org/2000/svg">
<path d="M21.4542 15.6005V20.8313C21.4542 22.5828 17.2227 24 11.9999 24C8.6919 24 5.77801 23.4307 4.09014 22.5669C3.22234 22.125 2.68094 21.6075 2.56951 21.0462C2.55358 20.9746 2.54565 20.9029 2.54565 20.8313V15.6005C2.54565 15.5846 2.54565 15.5687 2.54959 15.5528C2.54565 15.5448 2.54565 15.5409 2.54959 15.5369C2.54959 15.509 2.55358 15.4811 2.55756 15.4533C2.56154 15.4413 2.56154 15.4294 2.56553 15.4174C2.56951 15.3856 2.57744 15.3538 2.58944 15.3219V15.3179C2.60537 15.2543 2.62923 15.1945 2.65712 15.1308C3.18259 13.9884 5.52728 13.045 8.67203 12.6508C9.08205 12.599 9.508 12.5553 9.94187 12.5234H9.96578C10.6226 12.4717 11.3034 12.4478 12 12.4478C12.6966 12.4478 13.3773 12.4717 14.0341 12.5234H14.058C14.4918 12.5553 14.9178 12.599 15.3278 12.6508C18.4726 13.0449 20.8172 13.9884 21.3427 15.1308C21.3706 15.1945 21.3945 15.2543 21.4104 15.3179V15.3219C21.4224 15.3538 21.4303 15.3856 21.4343 15.4174C21.4422 15.4572 21.4462 15.4931 21.4502 15.5369V15.5528C21.4542 15.5687 21.4542 15.5846 21.4542 15.6005Z" fill="#39526C"/>
<path opacity="0.1" d="M21.4542 15.6165V15.8672C21.4542 17.6188 17.2227 19.0399 11.9999 19.0399C6.77715 19.0399 2.54565 17.6188 2.54565 15.8672V15.6165C2.54565 15.6563 2.54959 15.6921 2.55358 15.7279C2.677 16.962 4.91017 18.0209 8.08286 18.5025C8.19433 18.5184 8.30181 18.5344 8.41328 18.5503C8.59239 18.5781 8.77155 18.602 8.95464 18.6219C9.0303 18.6259 9.10989 18.6339 9.18948 18.6458C9.63137 18.6936 10.0892 18.7294 10.5588 18.7533C10.8733 18.7692 11.1918 18.7811 11.5142 18.7851C11.6735 18.7891 11.8367 18.7891 11.9999 18.7891C12.1631 18.7891 12.3263 18.7891 12.4855 18.7851C12.808 18.7811 13.1264 18.7692 13.441 18.7533C13.9107 18.7294 14.3685 18.6936 14.8103 18.6458C14.8899 18.6339 14.9695 18.6259 15.0452 18.6219C15.2283 18.602 15.4074 18.5781 15.5865 18.5503C15.698 18.5344 15.8055 18.5184 15.9169 18.5025C19.0896 18.0209 21.3228 16.962 21.4462 15.7279C21.4502 15.6921 21.4542 15.6563 21.4542 15.6165Z" fill="#E8E8E9"/>
<path d="M21.4542 15.5846V15.6165C21.4542 15.6563 21.4503 15.6921 21.4463 15.7279C21.2791 16.966 19.0578 18.0129 15.917 18.5025C15.8055 18.5185 15.698 18.5344 15.5866 18.5503C15.4751 18.5662 15.3636 18.5781 15.2522 18.5941C15.1845 18.602 15.1128 18.61 15.0452 18.622C14.9696 18.6259 14.89 18.6339 14.8104 18.6458C14.5157 18.6737 14.2133 18.7015 13.9067 18.7215C13.7515 18.7334 13.5962 18.7453 13.441 18.7533C13.1265 18.7653 12.808 18.7772 12.4855 18.7851C12.3263 18.7891 12.1631 18.7891 11.9999 18.7891C11.8367 18.7891 11.6735 18.7891 11.5142 18.7851C11.1918 18.7772 10.8734 18.7653 10.5588 18.7533C10.4036 18.7453 10.2483 18.7334 10.0931 18.7215C9.78658 18.7015 9.48405 18.6737 9.18944 18.6458C9.10984 18.6339 9.0302 18.6259 8.95459 18.622C8.88695 18.61 8.81528 18.602 8.74759 18.5941C8.63612 18.5781 8.52465 18.5662 8.41323 18.5503C8.30176 18.5344 8.19428 18.5185 8.08281 18.5025C4.94205 18.0129 2.72078 16.966 2.55358 15.7279C2.54959 15.6921 2.54565 15.6563 2.54565 15.6165V15.5846C2.54565 15.5727 2.54565 15.5647 2.54959 15.5528C2.54565 15.5448 2.54565 15.5409 2.54959 15.5369C2.55358 15.493 2.55756 15.4572 2.56553 15.4174C2.56951 15.3975 2.57345 15.3776 2.57345 15.3577C2.56951 15.3498 2.57345 15.3418 2.57744 15.3339C2.57744 15.3259 2.57744 15.3139 2.58142 15.302C2.58939 15.2781 2.59337 15.2503 2.60533 15.2264C2.61728 15.1905 2.63322 15.1508 2.64911 15.1109C3.14275 13.9764 5.39186 13.0369 8.42917 12.619C8.79142 12.5673 9.16562 12.5234 9.55173 12.4916C9.55572 12.4876 9.56369 12.4876 9.56767 12.4876C10.3439 12.4159 11.16 12.3801 11.9999 12.3801C12.8399 12.3801 13.6559 12.4159 14.4322 12.4876C14.4362 12.4876 14.4441 12.4876 14.4481 12.4916C14.8343 12.5234 15.2085 12.5673 15.5707 12.619C18.608 13.0369 20.8571 13.9764 21.3507 15.1109C21.3786 15.1746 21.4025 15.2383 21.4184 15.302C21.4264 15.3418 21.4264 15.3776 21.4343 15.4174C21.4423 15.4572 21.4463 15.493 21.4502 15.5369V15.5528C21.4502 15.5607 21.4542 15.5727 21.4542 15.5846Z" fill="#CEDCE4"/>
<path d="M18.3283 19.9899V21.4519C17.5667 21.6822 16.6929 21.8713 15.7369 22.0091V20.5471C16.693 20.4094 17.5667 20.2202 18.3283 19.9899Z" fill="#CEDCE4"/>
<path opacity="0.3" d="M21.4184 15.302C21.4144 15.31 21.4144 15.3139 21.4104 15.3179V15.3219C20.9646 16.9301 16.9241 18.188 11.9999 18.188C7.0757 18.188 3.03526 16.9301 2.58939 15.3219V15.3179C2.58541 15.3139 2.58541 15.31 2.58541 15.306L2.58142 15.302C2.58939 15.2781 2.59337 15.2503 2.60533 15.2264C2.61728 15.1905 2.63322 15.1508 2.64911 15.1109C3.14275 13.9764 5.39186 13.0369 8.42917 12.619C8.79142 12.5673 9.16562 12.5234 9.55173 12.4916C9.55572 12.4876 9.56369 12.4876 9.56767 12.4876C10.3439 12.4159 11.16 12.3801 11.9999 12.3801C12.8399 12.3801 13.6559 12.4159 14.4322 12.4876C14.4362 12.4876 14.4441 12.4876 14.4481 12.4916C14.8343 12.5234 15.2085 12.5673 15.5707 12.619C18.608 13.0369 20.8571 13.9764 21.3507 15.1109C21.3786 15.1746 21.4024 15.2383 21.4184 15.302Z" fill="#040000"/>
<path d="M21.4542 9.41445V14.6413C21.4542 14.8004 21.4184 14.9597 21.3507 15.1109C21.3467 15.1189 21.3428 15.1269 21.3428 15.1309C20.6382 16.6515 16.7251 17.8099 11.9999 17.8099C7.27473 17.8099 3.36165 16.6515 2.65708 15.1309C2.65708 15.1269 2.65309 15.1189 2.64911 15.1109C2.63317 15.0711 2.61728 15.0313 2.60533 14.9955C2.59337 14.9557 2.58142 14.9199 2.57345 14.8801C2.57345 14.8801 2.57345 14.8761 2.57345 14.8721C2.56154 14.8403 2.55751 14.8044 2.55353 14.7686C2.54959 14.7248 2.54565 14.685 2.54565 14.6412V9.41052C2.54565 9.31892 2.56159 9.22339 2.58545 9.13583C2.58944 9.12786 2.58944 9.11989 2.59342 9.11591C2.60936 9.05624 2.63322 8.99652 2.65712 8.94078C3.18658 7.7983 5.5352 6.85489 8.67601 6.46077C9.08603 6.40902 9.508 6.36524 9.94187 6.33336C10.6027 6.28564 11.2914 6.25775 12 6.25775C12.7085 6.25775 13.3972 6.28564 14.058 6.33336C14.4919 6.36524 14.9139 6.40902 15.3239 6.46077C18.4647 6.85485 20.8133 7.7983 21.3428 8.94078C21.3667 8.99652 21.3905 9.05624 21.4065 9.11591C21.4105 9.11989 21.4105 9.12786 21.4144 9.13583C21.4383 9.22733 21.4542 9.31892 21.4542 9.41445Z" fill="#39526C"/>
<path opacity="0.1" d="M21.4542 9.43042V9.68125C21.4542 11.0068 19.022 12.1413 15.5707 12.619C15.491 12.627 15.4075 12.6389 15.3279 12.6509C14.2929 12.7782 13.1702 12.8499 12 12.8499C10.8296 12.8499 9.70703 12.7782 8.67203 12.6509C8.59239 12.6389 8.50881 12.627 8.42922 12.619C4.9779 12.1413 2.54565 11.0068 2.54565 9.68125V9.43042C2.54565 9.46628 2.54959 9.50608 2.55358 9.54189C2.68098 10.8038 5.02164 11.8826 8.31775 12.3483C8.34958 12.3523 8.3814 12.3563 8.41328 12.3603C8.66805 12.4 8.92281 12.4279 9.18953 12.4558C9.30897 12.4678 9.42841 12.4797 9.55178 12.4916C9.67919 12.5035 9.81053 12.5155 9.94187 12.5235H9.96578C10.4673 12.5633 10.9848 12.5872 11.5143 12.5951C11.6735 12.5991 11.8367 12.5991 12 12.5991C12.1632 12.5991 12.3264 12.5991 12.4856 12.5951C13.015 12.5872 13.5325 12.5633 14.0341 12.5235H14.058C14.1894 12.5155 14.3207 12.5035 14.4481 12.4916C14.5715 12.4797 14.6909 12.4678 14.8103 12.4558C15.077 12.4279 15.3318 12.4 15.5866 12.3603L15.6821 12.3483C18.9782 11.8826 21.3189 10.8038 21.4463 9.54189C21.4503 9.50608 21.4542 9.46628 21.4542 9.43042Z" fill="#E8E8E9"/>
<path d="M21.4542 9.39458V9.43039C21.4542 9.46625 21.4503 9.50605 21.4463 9.54186C21.2751 10.8038 18.9463 11.8746 15.6821 12.3483L15.5866 12.3603C15.4751 12.3762 15.3636 12.3881 15.2522 12.404C15.1049 12.4199 14.9616 12.4359 14.8104 12.4558C14.6869 12.4677 14.5596 12.4797 14.4322 12.4876C14.3008 12.4995 14.1694 12.5115 14.0341 12.5234C13.9903 12.5234 13.9505 12.5274 13.9067 12.5314C13.7515 12.5434 13.5962 12.5513 13.441 12.5593C13.1265 12.5752 12.808 12.5871 12.4855 12.5951H11.5142C11.1918 12.5871 10.8734 12.5752 10.5588 12.5593C10.4036 12.5513 10.2483 12.5434 10.0931 12.5314C10.0493 12.5274 10.0095 12.5234 9.96569 12.5234C9.83036 12.5115 9.69897 12.4995 9.56762 12.4876C9.44022 12.4797 9.31286 12.4677 9.18944 12.4558C9.03817 12.4359 8.89487 12.4199 8.74759 12.404C8.63612 12.3881 8.52465 12.3762 8.41323 12.3603C8.3814 12.3563 8.34953 12.3523 8.3177 12.3483C5.05351 11.8745 2.72476 10.8038 2.55358 9.54186C2.54959 9.50605 2.54565 9.46625 2.54565 9.43039V9.39458C2.54565 9.35478 2.54959 9.31494 2.55358 9.27519C2.55756 9.23534 2.56154 9.19555 2.5735 9.15575C2.5735 9.1438 2.57748 9.12786 2.58147 9.11591H21.4184C21.4271 9.14909 21.4259 9.1835 21.4314 9.21683C21.4412 9.2653 21.4475 9.31442 21.4503 9.36411C21.4506 9.37437 21.4542 9.38412 21.4542 9.39458Z" fill="#CEDCE4"/>
<path d="M18.3283 13.8005V15.2625C17.5667 15.4928 16.6929 15.6819 15.7369 15.8197V14.3577C16.693 14.2199 17.5667 14.0308 18.3283 13.8005Z" fill="#CEDCE4"/>
<path opacity="0.3" d="M21.4144 9.11584V9.13577C20.9567 10.744 16.9202 12.0019 12 12.0019C7.07973 12.0019 3.04328 10.744 2.58545 9.13577V9.11584H21.4144Z" fill="#040000"/>
<path d="M21.4542 3.22442V8.45117C21.4542 8.61833 21.4144 8.78159 21.3428 8.94078C21.3149 9.0005 21.283 9.05623 21.2472 9.11591C20.3396 10.549 16.546 11.6238 12 11.6238C7.45394 11.6238 3.6603 10.549 2.75265 9.11591C2.71684 9.05623 2.68497 9.0005 2.65712 8.94078C2.65712 8.9368 2.65314 8.92883 2.64915 8.92086C2.63322 8.88509 2.61733 8.84525 2.60537 8.80545C2.59342 8.77362 2.58545 8.74175 2.57748 8.70992C2.5735 8.69797 2.56956 8.68208 2.56956 8.67012C2.56159 8.63825 2.55761 8.61041 2.55362 8.57858C2.54959 8.53475 2.54565 8.49495 2.54565 8.45117V3.22044C2.57748 1.47687 6.79712 0.0716553 12 0.0716553C15.2164 0.0716553 18.0587 0.609077 19.7664 1.43309C20.7616 1.9108 21.3746 2.48801 21.4463 3.113C21.4502 3.14876 21.4542 3.18861 21.4542 3.22442Z" fill="#39526C"/>
<path opacity="0.1" d="M21.4542 3.24036V3.49114C21.4542 4.84854 18.9065 6.00697 15.3239 6.46076C14.2889 6.58817 13.1703 6.65979 12 6.65979C10.8296 6.65979 9.71101 6.58817 8.67601 6.46076C5.09331 6.00697 2.54565 4.84854 2.54565 3.49118V3.2404C2.54565 4.6655 5.34015 5.8677 9.18953 6.26576C9.43637 6.28967 9.68711 6.31353 9.94187 6.3334C10.6027 6.38122 11.2914 6.40906 12 6.40906C12.7085 6.40906 13.3972 6.38122 14.058 6.3334C14.3128 6.31353 14.5636 6.28967 14.8104 6.26576C18.6597 5.86765 21.4542 4.66545 21.4542 3.24036Z" fill="#E8E8E9"/>
<path d="M21.4542 3.20452V3.22439C21.4303 4.65347 18.6438 5.85966 14.8104 6.26569C14.5635 6.28959 14.3128 6.31345 14.058 6.33333C13.3972 6.38114 12.7085 6.40898 11.9999 6.40898C11.2913 6.40898 10.6027 6.38114 9.94183 6.33333C9.68706 6.31345 9.43628 6.28959 9.18948 6.26569C5.35609 5.85966 2.56956 4.65347 2.54565 3.22439V3.20452C2.54565 1.43705 6.77715 0 12 0C15.1527 0 17.9432 0.525469 19.6629 1.32956C20.7377 1.83113 21.3945 2.44814 21.4463 3.11297C21.4542 3.14081 21.4542 3.17264 21.4542 3.20452Z" fill="#CEDCE4"/>
<path d="M18.3283 7.61108V9.07307C17.5667 9.30337 16.6929 9.49255 15.7369 9.63032V8.16833C16.693 8.03057 17.5667 7.84138 18.3283 7.61108Z" fill="#CEDCE4"/>
<path opacity="0.2" d="M12 0V24C8.69195 24 5.77806 23.4308 4.09019 22.5669C3.22239 22.125 2.68098 21.6075 2.56956 21.0463C2.55358 20.9746 2.54565 20.903 2.54565 20.8313V15.5846C2.54565 15.5727 2.54565 15.5648 2.54959 15.5528C2.54565 15.5449 2.54565 15.5409 2.54959 15.5369C2.54959 15.509 2.55358 15.4812 2.55756 15.4533C2.55756 15.4215 2.56154 15.3896 2.5735 15.3577C2.56956 15.3498 2.5735 15.3419 2.57748 15.3339C2.57748 15.3219 2.57748 15.314 2.58545 15.306C2.58944 15.2782 2.59736 15.2543 2.60537 15.2264C2.61733 15.1905 2.63326 15.1508 2.64915 15.111C2.63322 15.0712 2.61733 15.0314 2.60537 14.9955C2.59342 14.9557 2.58147 14.9199 2.5735 14.8801C2.5735 14.8801 2.5735 14.8761 2.5735 14.8721C2.56159 14.8403 2.55756 14.8044 2.55358 14.7686C2.54959 14.7248 2.54565 14.685 2.54565 14.6412V9.39459C2.54565 9.3548 2.54959 9.31495 2.55358 9.2752C2.55756 9.23536 2.56154 9.19556 2.5735 9.15577C2.5735 9.14381 2.57748 9.13186 2.58545 9.11592C2.59736 9.05227 2.62126 8.98462 2.64915 8.92087C2.63322 8.88511 2.61733 8.84527 2.60537 8.80547C2.59342 8.77364 2.58545 8.74177 2.57748 8.70994C2.5735 8.69798 2.56956 8.68209 2.56956 8.67014C2.56159 8.63827 2.55761 8.61042 2.55362 8.57859C2.54959 8.53472 2.54565 8.49492 2.54565 8.45114V3.20452C2.54565 1.43705 6.77715 0 12 0Z" fill="white"/>
</svg>
