<svg width="24" height="24" viewBox="0 0 24 24" fill="none" xmlns="http://www.w3.org/2000/svg">
<g clip-path="url(#clip0_11_194)">
<path d="M23.25 23.52H0.750018V22.98H1.23002V21.0637L0.508518 19.6207C0.474768 19.5532 0.471018 19.476 0.497268 19.4055L1.20377 17.52H0.750018V16.98H1.40627L2.73002 13.4512V9.74998H3.27002V13.5C3.27002 13.5322 3.26402 13.5645 3.25277 13.5945L1.98377 16.98H8.51702L7.24802 13.5945C7.23602 13.5645 7.23002 13.5322 7.23002 13.5V9.74998H7.77002V13.4512L9.09377 16.98H9.75002V17.5207H9.29627L10.0028 19.4062C10.029 19.4767 10.0253 19.554 9.99152 19.6215L9.27002 21.0645V22.9807H11.73V22.5C11.73 21.0787 12.6405 19.8675 13.9095 19.4175L13.2428 17.3332C13.2345 17.3055 13.23 17.2777 13.23 17.25V11.5912C13.23 9.05848 13.8623 7.91773 14.8808 6.89923L17.076 5.04373C17.157 4.97548 17.271 4.96198 17.364 5.00473C17.4585 5.04898 17.52 5.14498 17.52 5.24998V7.22998H18.75C18.813 7.22998 18.8745 7.25173 18.9225 7.29223L23.4225 11.0422C23.5185 11.1225 23.547 11.2582 23.4915 11.3707L22.7415 12.8707C22.689 12.9765 22.5765 13.0327 22.455 13.0162L18.516 12.36L21.234 17.1157C21.2715 17.1817 21.2805 17.2597 21.2565 17.3317L20.5898 19.416C21.858 19.8667 22.7693 21.078 22.7693 22.4985V22.9792H23.25V23.52ZM12.27 22.98H22.23V22.4992C22.23 20.994 21.0053 19.77 19.5 19.77H15C13.4948 19.77 12.27 20.994 12.27 22.4992V22.98ZM1.77002 22.98H8.73002V21.27H1.77002V22.98ZM5.20577 20.73H8.83277L9.45602 19.485L8.71952 17.5207H1.78127L1.04477 19.485L1.66802 20.73H5.20577ZM15 19.23H19.5C19.6935 19.23 19.8833 19.2465 20.0678 19.2795L20.7068 17.2807L17.766 12.1342C17.7143 12.0435 17.7195 11.931 17.7795 11.8462C17.838 11.7607 17.9385 11.718 18.045 11.7345L22.3478 12.4515L22.9133 11.3212L18.6525 7.76998H17.25C17.1008 7.76998 16.98 7.64923 16.98 7.49998V5.83123L15.246 7.29598C14.4233 8.11948 13.8773 9.05473 13.7843 10.98H15V11.52H13.77C13.77 11.544 13.77 11.5672 13.77 11.5912V13.23H15V13.7707H13.77V15.48H15V16.0207H13.77V17.208L14.4323 19.2802C14.6168 19.2465 14.8065 19.23 15 19.23ZM8.25002 8.51998H2.25002V7.97998H8.25002V8.51998ZM7.77002 6.74998H7.23002V5.24998C7.23002 5.20798 7.23977 5.16673 7.25852 5.12923L7.94852 3.74998L7.33352 2.51998H3.16727L2.55152 3.74998L3.24077 5.12923C3.26027 5.16673 3.27002 5.20798 3.27002 5.24998V6.74998H2.73002V5.31373L2.00852 3.87073C1.97027 3.79423 1.97027 3.70498 2.00852 3.62923L2.75852 2.12923C2.80427 2.03773 2.89802 1.97998 3.00002 1.97998H3.48002V0.74998C3.48002 0.60073 3.60077 0.47998 3.75002 0.47998H6.75002C6.89927 0.47998 7.02002 0.60073 7.02002 0.74998V1.97998H7.50002C7.60202 1.97998 7.69577 2.03773 7.74152 2.12923L8.49152 3.62923C8.52977 3.70573 8.52977 3.79498 8.49152 3.87073L7.77002 5.31373V6.74998ZM4.02002 1.97998H6.48002V1.01998H4.02002V1.97998ZM6.75002 4.01998H3.75002V3.47998H6.75002V4.01998Z" fill="black"/>
</g>
<defs>
<clipPath id="clip0_11_194">
<rect width="24" height="24" fill="white"/>
</clipPath>
</defs>
</svg>
