<svg width="24" height="24" viewBox="0 0 24 24" fill="none" xmlns="http://www.w3.org/2000/svg">
<g clip-path="url(#clip0_11_50)">
<path d="M11.0272 0H14.9491V17.9755C12.9402 18.3555 11.4613 18.505 9.86123 18.505C5.07111 18.5 2.57764 16.36 2.57764 12.25C2.57764 8.29002 5.22253 5.71999 9.32113 5.71999C9.95714 5.71999 10.4417 5.77004 11.0272 5.91999V0ZM11.1646 9.15938C10.7053 9.00936 10.3268 8.95938 9.84216 8.95938C7.85852 8.95938 6.71275 10.1693 6.71275 12.2898C6.71275 14.3544 7.8081 15.4943 9.81698 15.4943C10.251 15.4943 10.6043 15.4699 11.1646 15.3949V9.15938Z" fill="#2BA977"/>
<path d="M21.3626 6.20259V15.2027C21.3626 18.3021 21.1305 19.7926 20.449 21.0777C19.813 22.3131 18.9752 23.0922 17.2439 23.9526L13.6046 22.2377C15.3359 21.4331 16.1738 20.7221 16.7089 19.6372C17.269 18.5277 17.4457 17.2426 17.4457 13.8626V6.20266L21.3626 6.20259ZM17.0505 0H20.9724V3.98501H17.0505V0Z" fill="#2BA977"/>
</g>
<defs>
<clipPath id="clip0_11_50">
<rect width="18.8448" height="24" fill="white" transform="translate(2.57764)"/>
</clipPath>
</defs>
</svg>
