<svg width="90" height="90" viewBox="0 0 90 90" fill="none" xmlns="http://www.w3.org/2000/svg">
<g clip-path="url(#clip0_1_136)">
<path d="M45 46C45 42.5522 46.3696 39.2456 48.8076 36.8076C51.2456 34.3696 54.5522 33 58 33C61.4478 33 64.7544 34.3696 67.1924 36.8076C69.6304 39.2456 71 42.5522 71 46C71 49.4478 69.6304 52.7544 67.1924 55.1924C64.7544 57.6304 61.4478 59 58 59C54.5522 59 51.2456 57.6304 48.8076 55.1924C46.3696 52.7544 45 49.4478 45 46V46Z" fill="#1ABCFE"/>
<path d="M19 72C19 68.5522 20.3696 65.2456 22.8076 62.8076C25.2456 60.3696 28.5522 59 32 59H45V72C45 75.4478 43.6304 78.7544 41.1924 81.1924C38.7544 83.6304 35.4478 85 32 85C28.5522 85 25.2456 83.6304 22.8076 81.1924C20.3696 78.7544 19 75.4478 19 72V72Z" fill="#0ACF83"/>
<path d="M45 7V33H58C61.4478 33 64.7544 31.6304 67.1924 29.1924C69.6304 26.7544 71 23.4478 71 20C71 16.5522 69.6304 13.2456 67.1924 10.8076C64.7544 8.36964 61.4478 7 58 7L45 7Z" fill="#FF7262"/>
<path d="M19 20C19 23.4478 20.3696 26.7544 22.8076 29.1924C25.2456 31.6304 28.5522 33 32 33H45V7H32C28.5522 7 25.2456 8.36964 22.8076 10.8076C20.3696 13.2456 19 16.5522 19 20V20Z" fill="#F24E1E"/>
<path d="M19 46C19 49.4478 20.3696 52.7544 22.8076 55.1924C25.2456 57.6304 28.5522 59 32 59H45V33H32C28.5522 33 25.2456 34.3696 22.8076 36.8076C20.3696 39.2456 19 42.5522 19 46V46Z" fill="#A259FF"/>
</g>
<defs>
<clipPath id="clip0_1_136">
<rect width="52" height="78" fill="white" transform="translate(19 7)"/>
</clipPath>
</defs>
</svg>
