<svg width="24" height="24" viewBox="0 0 24 24" fill="none" xmlns="http://www.w3.org/2000/svg">
<g clip-path="url(#clip0_11_83)">
<path d="M14.715 8.6685L12.3127 10.9035L10.0837 6.40725L11.2372 3.82125C11.5372 3.29625 12.0052 3.30225 12.2977 3.82125L14.715 8.6685Z" fill="#FFA000"/>
<path d="M10.0837 6.40723L12.3127 10.9035L3.33521 19.2547L10.0837 6.40723Z" fill="#F57F17"/>
<path d="M17.3422 5.25224C17.7712 4.83974 18.2152 4.98074 18.3285 5.56499L20.6655 19.1437L12.9195 23.7937C12.6495 23.9437 11.9295 24.0082 11.9295 24.0082C11.9295 24.0082 11.274 23.9302 11.0242 23.7832L3.33521 19.2547L17.3422 5.25224Z" fill="#FFCA28"/>
<path d="M10.0838 6.40724L3.33606 19.2547L6.34131 0.478485C6.45231 -0.106515 6.78531 -0.162765 7.08231 0.353235L10.0838 6.40724Z" fill="#FFA000"/>
</g>
<defs>
<clipPath id="clip0_11_83">
<rect width="24" height="24" fill="white"/>
</clipPath>
</defs>
</svg>
