<svg width="24" height="24" viewBox="0 0 24 24" fill="none" xmlns="http://www.w3.org/2000/svg">
<g clip-path="url(#clip0_11_122)">
<path d="M15.961 7.67049L18.0473 5.58427L18.1863 4.70583C14.3846 1.24899 8.34142 1.64096 4.91439 5.52371C3.96245 6.60211 3.25623 7.94658 2.87964 9.33493L3.62683 9.22964L7.79917 8.54161L8.1213 8.21218C9.97726 6.17386 13.1154 5.89964 15.2583 7.63393L15.961 7.67049Z" fill="#EA4335"/>
<path d="M21.0192 9.27356C20.5396 7.50768 19.5552 5.92022 18.1863 4.70587L15.2583 7.63387C16.4947 8.64412 17.199 10.1661 17.1688 11.7623V12.2821C18.608 12.2821 19.7748 13.4488 19.7748 14.888C19.7748 16.3272 18.608 17.4647 17.1688 17.4647H11.9497L11.4373 18.021V21.1466L11.9497 21.637H17.1688C20.9123 21.6662 23.9706 18.6845 23.9998 14.941C24.0174 12.672 22.8987 10.5448 21.0192 9.27356Z" fill="#4285F4"/>
<path d="M6.7379 21.6371H11.9497V17.4647H6.7379C6.36656 17.4646 6.00693 17.3848 5.66925 17.2305L4.92984 17.4573L2.829 19.5436L2.646 20.2536C3.82415 21.1432 5.26162 21.6435 6.7379 21.6371Z" fill="#34A853"/>
<path d="M6.73784 8.1024C2.99431 8.12471 -0.0221895 11.1776 0.000122987 14.921C0.0125917 17.0115 0.988904 18.9793 2.64594 20.2536L5.66919 17.2305C4.35753 16.6379 3.77469 15.0943 4.36728 13.7827C4.95978 12.4711 6.50347 11.8883 7.81493 12.4808C8.3929 12.7419 8.85575 13.2048 9.11684 13.7827L12.1401 10.7596C10.8537 9.07796 8.855 8.09481 6.73784 8.1024Z" fill="#FBBC05"/>
</g>
<defs>
<clipPath id="clip0_11_122">
<rect width="24" height="19.3125" fill="white" transform="translate(0 2.34375)"/>
</clipPath>
</defs>
</svg>
