<svg width="24" height="24" viewBox="0 0 24 24" fill="none" xmlns="http://www.w3.org/2000/svg">
<g clip-path="url(#clip0_11_115)">
<path d="M12.24 9.81818V14.4655H18.6982C18.4146 15.96 17.5636 17.2255 16.2872 18.0764L20.1818 21.0983C22.4509 19.0038 23.76 15.9274 23.76 12.2729C23.76 11.422 23.6836 10.6037 23.5418 9.81831L12.24 9.81818Z" fill="#4285F4"/>
<path d="M5.51487 14.2841L4.6365 14.9565L1.52734 17.3783C3.50189 21.2946 7.54889 24.0002 12.2398 24.0002C15.4797 24.0002 18.1961 22.931 20.1816 21.0984L16.287 18.0765C15.2179 18.7965 13.8543 19.2329 12.2398 19.2329C9.11979 19.2329 6.46894 17.1275 5.51978 14.291L5.51487 14.2841Z" fill="#34A853"/>
<path d="M1.5273 6.62189C0.709157 8.23638 0.240112 10.0582 0.240112 12C0.240112 13.9418 0.709157 15.7637 1.5273 17.3782C1.5273 17.389 5.52012 14.28 5.52012 14.28C5.28012 13.56 5.13826 12.7964 5.13826 11.9999C5.13826 11.2034 5.28012 10.4398 5.52012 9.71984L1.5273 6.62189Z" fill="#FBBC05"/>
<path d="M12.24 4.7782C14.0073 4.7782 15.5782 5.3891 16.8328 6.56731L20.2691 3.13097C18.1855 1.18917 15.4801 0 12.24 0C7.54914 0 3.5019 2.69456 1.52734 6.62186L5.52004 9.72006C6.46908 6.88366 9.12004 4.7782 12.24 4.7782Z" fill="#EA4335"/>
</g>
<defs>
<clipPath id="clip0_11_115">
<rect width="23.52" height="24" fill="white" transform="translate(0.23999)"/>
</clipPath>
</defs>
</svg>
