<svg width="24" height="24" viewBox="0 0 24 24" fill="none" xmlns="http://www.w3.org/2000/svg">
<path d="M2.58558 17.6616L3.44812 18.1596L13.0571 1.51682L12.1946 1.01882L2.58558 17.6616Z" fill="#E535AB"/>
<path d="M21.6061 16.332H2.38806V17.328H21.6061V16.332Z" fill="#E535AB"/>
<path d="M2.76826 16.8915L12.3809 22.4415L12.8789 21.579L3.26626 16.029L2.76826 16.8915Z" fill="#E535AB"/>
<path d="M11.1187 2.42681L20.7313 7.97681L21.2293 7.11427L11.6167 1.56427L11.1187 2.42681Z" fill="#E535AB"/>
<path d="M2.77104 7.11049L3.26904 7.97302L12.8816 2.42302L12.3836 1.56049L2.77104 7.11049Z" fill="#E535AB"/>
<path d="M10.9452 1.517L20.5542 18.1598L21.4167 17.6618L11.8077 1.019L10.9452 1.517Z" fill="#E535AB"/>
<path d="M4.14602 6.45001H3.15002V17.55H4.14602V6.45001Z" fill="#E535AB"/>
<path d="M20.85 6.45001H19.854V17.55H20.85V6.45001Z" fill="#E535AB"/>
<path d="M11.7764 21.2665L12.2114 22.02L20.5718 17.193L20.1368 16.4395L11.7764 21.2665Z" fill="#E535AB"/>
<path d="M22.17 17.874C21.594 18.876 20.31 19.218 19.308 18.642C18.306 18.066 17.964 16.782 18.54 15.78C19.116 14.778 20.4 14.436 21.402 15.012C22.41 15.594 22.752 16.872 22.17 17.874Z" fill="#E535AB"/>
<path d="M5.45404 8.22003C4.87804 9.22203 3.59404 9.56403 2.59204 8.98803C1.59004 8.41203 1.24804 7.12803 1.82404 6.12603C2.40004 5.12403 3.68404 4.78203 4.68604 5.35803C5.68804 5.94003 6.03004 7.21803 5.45404 8.22003Z" fill="#E535AB"/>
<path d="M1.83002 17.874C1.25402 16.872 1.59602 15.594 2.59802 15.012C3.60002 14.436 4.87802 14.778 5.46002 15.78C6.03602 16.782 5.69402 18.06 4.69202 18.642C3.68402 19.218 2.40602 18.876 1.83002 17.874Z" fill="#E535AB"/>
<path d="M18.5461 8.22003C17.9701 7.21803 18.3121 5.94003 19.3141 5.35803C20.3161 4.78203 21.5941 5.12403 22.1761 6.12603C22.7521 7.12803 22.4101 8.40603 21.4081 8.98803C20.4061 9.56403 19.1221 9.22203 18.5461 8.22003Z" fill="#E535AB"/>
<path d="M12 23.748C10.842 23.748 9.90601 22.812 9.90601 21.654C9.90601 20.496 10.842 19.56 12 19.56C13.158 19.56 14.094 20.496 14.094 21.654C14.094 22.806 13.158 23.748 12 23.748Z" fill="#E535AB"/>
<path d="M12 4.44001C10.842 4.44001 9.90601 3.50401 9.90601 2.34601C9.90601 1.18801 10.842 0.252014 12 0.252014C13.158 0.252014 14.094 1.18801 14.094 2.34601C14.094 3.50401 13.158 4.44001 12 4.44001Z" fill="#E535AB"/>
</svg>
