<svg width="24" height="24" viewBox="0 0 24 24" fill="none" xmlns="http://www.w3.org/2000/svg">
<g clip-path="url(#clip0_11_69)">
<path d="M8.71644 18.555C8.71644 18.555 7.79394 19.116 9.35769 19.2765C11.2402 19.5165 12.2429 19.4768 14.3264 19.0763C14.7452 19.3327 15.188 19.5475 15.6487 19.7175C10.9612 21.7215 5.02944 19.5975 8.71644 18.555ZM8.11644 15.9503C8.11644 15.9503 7.11444 16.7115 8.67744 16.8728C10.7212 17.073 12.3239 17.1128 15.0899 16.5525C15.3589 16.8253 15.6883 17.0311 16.0514 17.1533C10.4009 18.8363 4.06944 17.313 8.11644 15.9503ZM19.1767 20.5178C19.1767 20.5178 19.8577 21.0788 18.4154 21.5198C15.7304 22.3223 7.15494 22.5623 4.75044 21.5198C3.90894 21.1598 5.51169 20.6385 6.02544 20.5583C6.54669 20.4383 6.82794 20.4383 6.82794 20.4383C5.90544 19.797 0.696689 21.7605 4.18344 22.3208C13.7609 23.8838 21.6554 21.6398 19.1707 20.5178H19.1767ZM9.14994 13.2248C9.14994 13.2248 4.78194 14.2673 7.58694 14.6273C8.78919 14.7878 11.1532 14.7473 13.3574 14.5875C15.1604 14.427 16.9649 14.1075 16.9649 14.1075C16.9649 14.1075 16.3237 14.388 15.8827 14.6685C11.4352 15.831 2.89869 15.3098 5.34369 14.1075C7.42719 13.1055 9.15069 13.2263 9.15069 13.2263L9.14994 13.2248ZM16.9649 17.5928C21.4529 15.2678 19.3694 13.0253 17.9264 13.305C17.5664 13.3853 17.4052 13.4655 17.4052 13.4655C17.4052 13.4655 17.5252 13.2255 17.8057 13.1453C20.6512 12.1433 22.8952 16.1505 16.8832 17.7128C16.8832 17.7128 16.9229 17.673 16.9634 17.5928H16.9649ZM9.59244 23.9243C13.9199 24.2048 20.5327 23.7638 20.6924 21.7193C20.6924 21.7193 20.3722 22.5218 17.1262 23.1218C13.4392 23.8028 8.87094 23.7218 6.18594 23.2823C6.18594 23.2823 6.74694 23.763 9.59244 23.9243Z" fill="#4E7896"/>
<path d="M14.247 0.000732422C14.247 0.000732422 16.7318 2.52523 11.883 6.33223C7.9958 9.41773 11.0018 11.181 11.883 13.185C9.59855 11.1412 7.95605 9.33748 9.07805 7.65523C10.7205 5.16973 15.249 3.97498 14.247 0.000732422ZM12.972 11.502C14.1345 12.8242 12.6518 14.0265 12.6518 14.0265C12.6518 14.0265 15.6173 12.504 14.2545 10.62C13.0125 8.81698 12.0495 7.93498 17.2598 4.92973C17.2598 4.92973 9.04505 6.97348 12.972 11.502Z" fill="#F58219"/>
</g>
<defs>
<clipPath id="clip0_11_69">
<rect width="24" height="24" fill="white"/>
</clipPath>
</defs>
</svg>
