<svg width="24" height="24" viewBox="0 0 24 24" fill="none" xmlns="http://www.w3.org/2000/svg">
<g clip-path="url(#clip0_11_176)">
<path d="M16.4208 5.47405C17.814 5.47405 18.9471 4.34102 18.9471 2.94778C18.9471 1.55454 17.814 0.421509 16.4208 0.421509C15.0276 0.421509 13.8945 1.55454 13.8945 2.94778C13.8945 4.34102 15.0276 5.47405 16.4208 5.47405ZM16.4208 1.2636C17.3496 1.2636 18.105 2.01895 18.105 2.94778C18.105 3.87661 17.3496 4.63196 16.4208 4.63196C16.3715 4.63196 16.3256 4.62144 16.2776 4.61765C16.6212 4.30902 16.8418 3.86608 16.8418 3.36883H15.9998C15.9998 3.78398 15.697 4.12797 15.3008 4.1966C14.9572 3.88797 14.7366 3.44503 14.7366 2.94778C14.7366 2.01895 15.492 1.2636 16.4208 1.2636Z" fill="black"/>
<path d="M3.36831 10.5265C4.76155 10.5265 5.89458 9.39351 5.89458 8.00027C5.89458 6.60703 4.76155 5.474 3.36831 5.474C1.97507 5.474 0.842041 6.60703 0.842041 8.00027C0.842041 9.39351 1.97507 10.5265 3.36831 10.5265ZM3.36831 6.31609C4.29714 6.31609 5.05249 7.07144 5.05249 8.00027C5.05249 8.49752 4.83187 8.94046 4.48829 9.24909C4.09209 9.18046 3.78936 8.83647 3.78936 8.42132H2.94727C2.94727 8.91857 3.1679 9.36151 3.51147 9.67014C3.46347 9.67392 3.41757 9.68445 3.36831 9.68445C2.43949 9.68445 1.68413 8.9291 1.68413 8.00027C1.68413 7.07144 2.43949 6.31609 3.36831 6.31609Z" fill="black"/>
<path d="M23.7116 0.864307L21.1853 0.0222167C21.0565 -0.021572 20.9163 0.00032233 20.806 0.0794788C20.6961 0.159056 20.6312 0.286212 20.6312 0.421368V3.78973V5.89496H14.7366C14.6381 5.89496 14.5425 5.92948 14.4667 5.99222L11.9404 8.09744C11.8962 8.13492 11.8596 8.18081 11.8335 8.2326L10.6394 10.6212L7.98091 11.7601L5.60664 10.969C5.56369 10.9551 5.51864 10.9475 5.47359 10.9475H2.10523C0.944404 10.9475 0 11.8919 0 13.0527V17.6842C0 17.9171 0.188207 18.1053 0.421045 18.1053H1.68418V23.1578H0V23.9999H2.10523H4.21045H5.89463C6.12747 23.9999 6.31568 23.8117 6.31568 23.5789V21.4736H7.15777H9.263H12.2103C12.4432 21.4736 12.6314 21.2854 12.6314 21.0526V18.9474H15.1576H17.2629C17.4957 18.9474 17.6839 18.7592 17.6839 18.5263V16.4211H20.2102H22.3154H23.5785V15.579H22.7364V12.2106C22.7364 11.0498 21.792 10.1054 20.6312 10.1054H18.947V8.42123H21.0523C22.2131 8.42123 23.1575 7.47682 23.1575 6.316V3.78973C23.1575 3.55689 22.9693 3.36868 22.7364 3.36868H21.4733V2.40912L23.7116 1.66303C23.8838 1.60535 23.9996 1.44493 23.9996 1.26346C23.9996 1.08199 23.8838 0.921569 23.7116 0.864307ZM17.062 6.73705L16.8418 7.28777L16.6216 6.73705H17.062ZM5.89463 20.6315C5.6618 20.6315 5.47359 20.8197 5.47359 21.0526V23.1578H4.6315V18.1053H6.73672V20.6315H5.89463ZM7.57881 20.6315V17.6842C7.57881 17.4514 7.39061 17.2632 7.15777 17.2632H4.21045C3.97761 17.2632 3.78941 17.4514 3.78941 17.6842V23.1578H2.52627V13.4738H1.68418V17.2632H0.84209V13.0527C0.84209 12.3563 1.40882 11.7896 2.10523 11.7896H3.36836V14.7369H4.21045V11.7896H5.40538L7.86681 12.6098C7.96449 12.643 8.07144 12.6376 8.16575 12.5976L10.791 11.4725L11.0465 11.8557L11.1741 12.0473L8.34975 13.459L5.53296 13.0565C5.41212 13.0388 5.28959 13.0755 5.19738 13.155C5.10559 13.2359 5.05254 13.3517 5.05254 13.4738V15.579C5.05254 15.8118 5.24075 16 5.47359 16H7.57881C8.27522 16 8.84195 16.5668 8.84195 17.2632V20.6315H7.57881ZM12.2103 18.1053C11.9775 18.1053 11.7893 18.2935 11.7893 18.5263V20.6315H9.68404V17.2632C9.68404 16.1024 8.73964 15.158 7.57881 15.158H5.89463V13.9592L8.36112 14.3117C8.44617 14.3239 8.53206 14.3095 8.60911 14.2712L11.9775 12.587C12.0389 12.5563 12.0874 12.5096 12.1265 12.4553C12.1299 12.4506 12.1362 12.4489 12.1396 12.4443L13.7838 9.97825L14.7366 9.26332V18.1053H12.2103ZM19.7891 15.579H17.6839V13.0527H19.7891V15.579ZM22.3154 6.316C22.3154 7.01241 21.7487 7.57914 21.0523 7.57914H18.526C18.2932 7.57914 18.1049 7.76734 18.1049 8.00018V10.5265C18.1049 10.7593 18.2932 10.9475 18.526 10.9475H20.6312C21.3276 10.9475 21.8944 11.5142 21.8944 12.2106V15.579H20.6312V12.6317C20.6312 12.3988 20.443 12.2106 20.2102 12.2106H17.2629C17.03 12.2106 16.8418 12.3988 16.8418 12.6317V16V18.1053H15.5787V8.42123C15.5787 8.26165 15.4886 8.11597 15.3458 8.04439C15.2035 7.97366 15.0322 7.98839 14.905 8.08439L13.2208 9.34753C13.1825 9.37574 13.1492 9.41068 13.1231 9.45068L11.7893 11.4515L11.4331 10.9168L12.5471 8.68817L14.889 6.73705H15.7147L16.4507 8.57744C16.5151 8.73743 16.6696 8.84227 16.8418 8.84227C17.014 8.84227 17.1685 8.73743 17.233 8.57744L17.9689 6.73705H21.0523C21.2851 6.73705 21.4733 6.54884 21.4733 6.316V4.21078H22.3154V6.316ZM21.4733 1.52114V1.00578L22.2472 1.26346L21.4733 1.52114Z" fill="black"/>
<path d="M10.9471 2.10559H10.105V2.94768H10.9471V2.10559Z" fill="black"/>
<path d="M9.26299 2.10559H8.4209V2.94768H9.26299V2.10559Z" fill="black"/>
<path d="M7.57891 2.10559H6.73682V2.94768H7.57891V2.10559Z" fill="black"/>
</g>
<defs>
<clipPath id="clip0_11_176">
<rect width="24" height="24" fill="white"/>
</clipPath>
</defs>
</svg>
