<svg width="594" height="595" viewBox="0 0 594 595" fill="none" xmlns="http://www.w3.org/2000/svg">
<g clip-path="url(#clip0_11_108)">
<path d="M439.813 433.301C443.59 401.833 442.458 397.218 465.897 402.315L471.847 402.838C489.87 403.658 513.446 399.939 527.297 393.505C557.113 379.67 574.793 356.571 545.393 362.641C478.33 376.475 473.719 353.767 473.719 353.767C544.534 248.697 574.137 115.319 548.585 82.6714C478.891 -6.38056 358.254 35.7301 356.235 36.8234L355.593 36.9421C342.342 34.1928 327.513 32.5501 310.854 32.2808C280.506 31.7821 257.478 40.2368 240.01 53.4861C240.01 53.4861 24.7993 -35.1779 34.8113 164.99C36.9407 207.571 95.8473 487.197 166.105 402.737C191.783 371.853 216.599 345.739 216.599 345.739C228.922 353.926 243.675 358.102 259.149 356.602L260.345 355.582C259.97 359.417 260.135 363.167 260.823 367.607C242.727 387.83 248.045 391.381 211.859 398.829C175.25 406.374 196.758 419.807 210.797 423.318C227.821 427.575 267.203 433.606 293.821 396.353L292.761 400.603C299.861 406.283 299.381 441.429 300.387 466.539C301.395 491.651 303.077 515.085 308.195 528.901C313.314 542.714 319.354 578.301 366.91 568.109C406.655 559.591 437.043 547.334 439.813 433.301Z" fill="black" stroke="black" stroke-width="49.8604"/>
<path d="M545.399 362.638C478.33 376.473 473.719 353.765 473.719 353.765C544.534 248.687 574.137 115.307 548.59 82.6634C478.897 -6.38326 358.254 35.7301 356.241 36.8234L355.593 36.9394C342.342 34.1887 327.513 32.5501 310.846 32.2781C280.498 31.7807 257.478 40.2341 240.01 53.4807C240.01 53.4807 24.7954 -35.1793 34.8047 164.987C36.934 207.571 95.8394 487.197 166.099 402.737C191.779 371.853 216.591 345.739 216.591 345.739C228.915 353.926 243.669 358.102 259.135 356.602L260.337 355.582C259.963 359.417 260.134 363.167 260.818 367.607C242.718 387.83 248.037 391.381 211.854 398.829C175.242 406.374 196.75 419.807 210.793 423.318C227.817 427.575 267.202 433.606 293.814 396.353L292.753 400.603C299.845 406.283 304.825 437.551 303.99 465.895C303.155 494.241 302.598 513.701 308.186 528.901C313.774 544.101 319.343 578.301 366.909 568.109C406.654 559.591 427.25 537.52 430.115 500.702C432.149 474.527 436.75 478.397 437.041 454.995L440.731 443.917C444.987 408.435 441.407 396.989 465.894 402.313L471.845 402.835C489.867 403.655 513.455 399.937 527.299 393.502C557.11 379.667 574.79 356.569 545.397 362.638H545.399Z" fill="#336791"/>
<path d="M296.694 382.977C294.847 448.998 297.158 515.479 303.618 531.637C310.082 547.794 323.915 579.221 371.485 569.03C411.226 560.51 425.686 544.022 431.961 507.629C436.582 480.853 445.491 406.49 446.634 391.254" stroke="white" stroke-width="16.6201" stroke-linecap="round" stroke-linejoin="round"/>
<path d="M239.678 52.0061C239.678 52.0061 24.3167 -36.0152 34.3287 164.151C36.458 206.735 95.3674 486.37 165.626 401.906C191.301 371.018 214.521 346.793 214.521 346.793" stroke="white" stroke-width="16.6201" stroke-linecap="round" stroke-linejoin="round"/>
<path d="M356.005 35.9407C348.55 38.2781 475.802 -10.5779 548.121 81.8301C573.666 114.475 544.063 247.855 473.25 352.935" stroke="white" stroke-width="16.6201" stroke-linecap="round" stroke-linejoin="round"/>
<path d="M473.249 352.935C473.249 352.935 477.863 375.65 544.934 361.806C574.321 355.737 556.635 378.838 526.831 392.679C502.371 404.031 447.533 406.941 446.637 391.254C444.331 350.781 475.498 363.077 473.249 352.935ZM473.249 352.935C471.215 343.802 457.278 334.838 448.058 312.485C440.009 292.974 337.663 143.353 476.441 165.574C481.525 164.522 440.246 33.5714 310.37 31.4421C180.523 29.3128 184.783 191.125 184.783 191.125" stroke="white" stroke-width="16.6201" stroke-linecap="round" stroke-linejoin="bevel"/>
<path d="M260.345 366.777C242.242 386.998 247.566 390.549 211.381 397.999C174.769 405.546 196.279 418.977 210.318 422.486C227.342 426.746 266.727 432.777 293.339 395.514C301.443 384.169 293.291 366.066 282.159 361.451C276.781 359.223 269.589 356.431 260.345 366.777Z" stroke="white" stroke-width="16.6201" stroke-linecap="round" stroke-linejoin="round"/>
<path d="M259.159 366.423C257.335 354.534 263.066 340.386 269.207 323.834C278.437 298.999 299.731 274.161 282.697 195.382C269.999 136.677 184.835 183.165 184.782 191.125C184.73 199.082 188.634 231.471 183.359 269.189C176.477 318.406 214.677 360.031 258.665 355.773" stroke="white" stroke-width="16.6201" stroke-linecap="round" stroke-linejoin="round"/>
<path d="M238.895 189.931C238.511 192.65 243.873 199.905 250.863 200.874C257.842 201.847 263.815 196.178 264.194 193.462C264.573 190.743 259.218 187.749 252.225 186.775C245.242 185.801 239.266 187.219 238.897 189.931H238.895Z" fill="white" stroke="white" stroke-width="5.54"/>
<path d="M451.461 184.389C451.839 187.107 446.485 194.362 439.493 195.331C432.509 196.305 426.535 190.635 426.153 187.919C425.783 185.201 431.139 182.206 438.125 181.233C445.11 180.259 451.082 181.677 451.461 184.39V184.389Z" fill="white" stroke="white" stroke-width="2.77"/>
<path d="M476.441 165.574C477.591 186.899 471.847 201.425 471.123 224.126C470.051 257.123 486.855 294.891 461.535 332.706" stroke="white" stroke-width="16.6201" stroke-linecap="round" stroke-linejoin="round"/>
</g>
<defs>
<clipPath id="clip0_11_108">
<rect width="576.095" height="593.844" fill="white" transform="translate(8.87268 0.998047)"/>
</clipPath>
</defs>
</svg>
