<svg width="24" height="24" viewBox="0 0 24 24" fill="none" xmlns="http://www.w3.org/2000/svg">
<g clip-path="url(#clip0_11_126)">
<path d="M21.7791 18.2337L13.5485 0.754854C13.3402 0.31662 12.9083 0.0278872 12.4238 0.00281031C11.938 -0.0297329 11.4745 0.210548 11.2212 0.626223L2.2942 15.085C2.01706 15.5307 2.02289 16.0965 2.30916 16.5364L6.67364 23.2952C7.01275 23.8163 7.65423 24.0522 8.25012 23.875L20.9158 20.1285C21.3017 20.0157 21.6196 19.7411 21.7875 19.3759C21.9531 19.0123 21.9502 18.5944 21.7797 18.2331L21.7791 18.2337ZM19.9364 18.9834L9.18883 22.1615C8.86097 22.259 8.54627 21.9748 8.61448 21.644L12.4543 3.25808C12.5261 2.91406 13.0011 2.85962 13.1513 3.17791L20.2595 18.2726C20.3231 18.4088 20.3239 18.5659 20.2616 18.7027C20.1993 18.8394 20.0803 18.942 19.9358 18.9834H19.9364Z" fill="black"/>
</g>
<defs>
<clipPath id="clip0_11_126">
<rect width="19.8194" height="24" fill="white" transform="translate(2.09033)"/>
</clipPath>
</defs>
</svg>
