<svg width="24" height="24" viewBox="0 0 24 24" fill="none" xmlns="http://www.w3.org/2000/svg">
<path d="M11.6354 0.000194763C10.6643 0.00470708 9.7369 0.0875297 8.92089 0.231923C6.51701 0.656609 6.08056 1.54551 6.08056 3.1848V5.34981H11.7612V6.07148H6.08056H3.94866C2.2977 6.07148 0.852077 7.0638 0.399904 8.95153C-0.121671 11.1153 -0.144806 12.4655 0.399904 14.7249C0.803706 16.4066 1.76804 17.6049 3.41899 17.6049H5.37213V15.0096C5.37213 13.1346 6.99442 11.4807 8.92089 11.4807H14.5949C16.1744 11.4807 17.4352 10.1802 17.4352 8.59401V3.1848C17.4352 1.64531 16.1365 0.488858 14.5949 0.231923C13.6191 0.0694802 12.6065 -0.00431762 11.6354 0.000194763ZM8.56336 1.74147C9.15013 1.74147 9.62931 2.22847 9.62931 2.82728C9.62931 3.42397 9.15013 3.90647 8.56336 3.90647C7.97449 3.90647 7.49741 3.42397 7.49741 2.82728C7.49741 2.22847 7.97449 1.74147 8.56336 1.74147Z" fill="url(#paint0_linear_11_55)"/>
<path d="M18.2383 6.26007V8.7826C18.2383 10.7383 16.5802 12.3843 14.6895 12.3843H9.0155C7.46129 12.3843 6.17517 13.7145 6.17517 15.271V20.6802C6.17517 22.2197 7.51386 23.1252 9.0155 23.5669C10.8137 24.0956 12.538 24.1912 14.6895 23.5669C16.1197 23.1528 17.5299 22.3195 17.5299 20.6802V18.5152H11.8558V17.7935H17.5299H20.3702C22.0211 17.7935 22.6364 16.6419 23.2105 14.9135C23.8036 13.134 23.7784 11.4228 23.2105 9.14012C22.8025 7.49659 22.0232 6.26007 20.3702 6.26007H18.2383ZM15.0471 19.9585C15.6359 19.9585 16.113 20.441 16.113 21.0377C16.113 21.6365 15.6359 22.1235 15.0471 22.1235C14.4603 22.1235 13.9811 21.6365 13.9811 21.0377C13.9811 20.441 14.4603 19.9585 15.0471 19.9585Z" fill="url(#paint1_linear_11_55)"/>
<defs>
<linearGradient id="paint0_linear_11_55" x1="-7.07388e-08" y1="-6.14488e-08" x2="13.099" y2="11.1621" gradientUnits="userSpaceOnUse">
<stop stop-color="#5A9FD4"/>
<stop offset="1" stop-color="#306998"/>
</linearGradient>
<linearGradient id="paint1_linear_11_55" x1="14.9105" y1="20.8557" x2="10.2111" y2="14.2704" gradientUnits="userSpaceOnUse">
<stop stop-color="#FFD43B"/>
<stop offset="1" stop-color="#FFE873"/>
</linearGradient>
</defs>
</svg>
