<svg width="24" height="24" viewBox="0 0 24 24" fill="none" xmlns="http://www.w3.org/2000/svg">
<g clip-path="url(#clip0_11_68)">
<path d="M12 14.1392C13.1814 14.1392 14.1391 13.1814 14.1391 12C14.1391 10.8186 13.1814 9.8609 12 9.8609C10.8186 9.8609 9.86084 10.8186 9.86084 12C9.86084 13.1814 10.8186 14.1392 12 14.1392Z" fill="#61DAFB"/>
<path d="M12 16.3826C18.3393 16.3826 23.4783 14.4204 23.4783 12C23.4783 9.57953 18.3393 7.61737 12 7.61737C5.66072 7.61737 0.521729 9.57953 0.521729 12C0.521729 14.4204 5.66072 16.3826 12 16.3826Z" stroke="#61DAFB"/>
<path d="M8.2045 14.1913C11.3741 19.6813 15.6429 23.1507 17.7391 21.9405C19.8353 20.7302 18.965 15.2987 15.7954 9.80869C12.6258 4.31872 8.35699 0.849305 6.26082 2.05953C4.16465 3.26975 5.03487 8.70133 8.2045 14.1913Z" stroke="#61DAFB"/>
<path d="M8.20452 9.80871C5.03488 15.2987 4.16467 20.7303 6.26083 21.9405C8.357 23.1507 12.6258 19.6813 15.7954 14.1913C18.965 8.70135 19.8353 3.26977 17.7391 2.05955C15.6429 0.849326 11.3741 4.31874 8.20452 9.80871Z" stroke="#61DAFB"/>
</g>
<defs>
<clipPath id="clip0_11_68">
<rect width="24" height="21.3532" fill="white" transform="translate(0 1.32343)"/>
</clipPath>
</defs>
</svg>
