<svg width="24" height="24" viewBox="0 0 24 24" fill="none" xmlns="http://www.w3.org/2000/svg">
<path d="M18.1508 1.0593H3.11659C2.10773 1.0593 1.28894 1.8854 1.28894 2.88695V19.4674C1.28894 20.4762 2.11504 21.295 3.11659 21.295H13.0225C12.9128 16.3677 14.5942 6.80543 18.1545 1.04468L18.1508 1.0593Z" fill="#0F80CC"/>
<path d="M17.6027 1.59668H3.11672C2.77287 1.59764 2.44337 1.73467 2.20022 1.97781C1.95708 2.22096 1.82006 2.55045 1.81909 2.89431V18.2648C5.10155 17.0038 10.0252 15.9181 13.432 15.9693C14.4822 11.0859 15.8735 6.28295 17.6027 1.59668Z" fill="url(#paint0_linear_11_131)"/>
<path d="M21.6597 0.518363C20.6289 -0.395461 19.3824 -0.0299314 18.1506 1.05935L17.6023 1.59302C15.4968 3.82275 13.5815 7.96055 12.9381 11.1224C13.1673 11.6231 13.3485 12.1445 13.4791 12.6795L13.5595 13.0451L13.64 13.4179C13.64 13.4179 13.6217 13.3448 13.5449 13.1255L13.4937 12.9793C13.4835 12.9522 13.4725 12.9254 13.4608 12.8989C13.2512 12.4605 13.0232 12.0313 12.7773 11.6122C12.6443 12.0009 12.5188 12.3921 12.4008 12.7855C12.8833 13.6701 13.1757 15.1834 13.1757 15.1834C13.1757 15.1834 13.1501 15.0847 13.0295 14.7448C12.9199 14.4414 12.3862 13.502 12.2619 13.2827C12.0426 14.0868 11.9585 14.6278 12.0353 14.7594C12.1815 15.0153 12.3277 15.4905 12.4556 15.9437C12.653 16.7475 12.814 17.5598 12.9381 18.3782L12.9564 18.6048C12.9185 19.5189 12.9368 20.4344 13.0112 21.3463C13.1063 22.4904 13.2854 23.4736 13.512 24L13.6655 23.9159C13.3366 22.8778 13.1977 21.5217 13.2562 19.9536C13.3475 17.5594 13.8958 14.6717 14.9157 11.6634C16.6446 7.08328 19.0279 3.43529 21.2137 1.69537C19.2216 3.49378 16.5276 9.31301 15.7235 11.466C14.8206 13.8785 14.1809 16.1448 13.7935 18.3124C14.4587 16.28 16.6081 15.4027 16.6081 15.4027C16.6081 15.4027 17.6681 14.1015 18.8963 12.2409L16.5386 12.8696L15.7783 13.2059C15.7783 13.2059 17.7156 12.0252 19.3861 11.4879C21.678 7.88013 24.1745 2.75175 21.6597 0.514708" fill="#003B57"/>
<defs>
<linearGradient id="paint0_linear_11_131" x1="10.9244" y1="1.93662" x2="10.9244" y2="17.34" gradientUnits="userSpaceOnUse">
<stop stop-color="#97D9F6"/>
<stop offset="0.92024" stop-color="#0F80CC"/>
<stop offset="1" stop-color="#0F80CC"/>
</linearGradient>
</defs>
</svg>
