<svg width="95" height="95" viewBox="0 0 95 95" fill="none" xmlns="http://www.w3.org/2000/svg">
<g clip-path="url(#clip0_8_74)">
<path d="M89.0625 10.1356L84.8644 5.9375L5.9375 84.8644L10.1356 89.0625L16.0731 83.125H77.1875C78.7616 83.1229 80.2706 82.4966 81.3836 81.3836C82.4966 80.2706 83.1229 78.7616 83.125 77.1875V16.0731L89.0625 10.1356ZM77.1875 77.1875H22.0106L45.1458 54.052L52.2078 61.1138C53.3213 62.2273 54.8315 62.8528 56.4062 62.8528C57.981 62.8528 59.4912 62.2273 60.6047 61.1138L65.3125 56.4062L77.1875 68.2732V77.1875ZM77.1875 59.8743L69.5109 52.1975C68.3974 51.084 66.8872 50.4584 65.3125 50.4584C63.7378 50.4584 62.2276 51.084 61.1141 52.1975L56.4062 56.9056L49.3495 49.8486L77.1875 22.0106V59.8743Z" fill="#737373"/>
<path d="M17.8125 65.3125V56.4062L32.6562 41.5726L36.7332 45.6496L40.9367 41.4458L36.8547 37.3638C35.7412 36.2503 34.231 35.6248 32.6562 35.6248C31.0815 35.6248 29.5713 36.2503 28.4578 37.3638L17.8125 48.0094V17.8125H65.3125V11.875H17.8125C16.2383 11.8766 14.7289 12.5026 13.6158 13.6158C12.5026 14.7289 11.8766 16.2383 11.875 17.8125V65.3125H17.8125Z" fill="#737373"/>
</g>
<defs>
<clipPath id="clip0_8_74">
<rect width="95" height="95" fill="white"/>
</clipPath>
</defs>
</svg>
