<svg width="95" height="95" viewBox="0 0 95 95" fill="none" xmlns="http://www.w3.org/2000/svg">
<path d="M65.0896 7.9175C59.2638 7.86652 53.656 10.1222 49.4736 14.1902L49.4328 14.2304L46.2975 17.3692C44.7525 18.9159 44.7541 21.4222 46.3006 22.9671C47.8475 24.5121 50.354 24.5106 51.8989 22.9639L55.0125 19.8465C57.7034 17.239 61.2968 15.8013 65.0204 15.8339C68.7531 15.8665 72.3294 17.374 74.9772 20.0405C77.6261 22.7078 79.1334 26.3218 79.1659 30.1055C79.1983 33.8783 77.7622 37.5084 75.1735 40.2194L64.262 51.2078C62.814 52.6664 61.0731 53.7926 59.1585 54.5118C57.2438 55.231 55.199 55.5271 53.162 55.3799C51.1254 55.233 49.1423 54.6468 47.348 53.6596C45.5537 52.6724 43.9886 51.3067 42.7607 49.6537C41.4572 47.8986 38.9777 47.5329 37.2227 48.8363C35.4678 50.1398 35.1019 52.6193 36.4055 54.3744C38.3089 56.9367 40.7388 59.0591 43.5318 60.5958C46.3252 62.1324 49.415 63.0471 52.5928 63.2763C55.7701 63.5055 58.959 63.0436 61.9424 61.923C64.9254 60.8024 67.6325 59.0492 69.8804 56.7851L80.8165 45.7722L80.8648 45.7227C84.9027 41.5126 87.1328 35.8791 87.0821 30.0372C87.0319 24.1952 84.7052 18.6014 80.5944 14.4621C76.4833 10.3219 70.9155 7.96848 65.0896 7.9175Z" fill="url(#paint0_linear_8_60)"/>
<path d="M42.4072 31.7238C39.2296 31.4947 36.0408 31.9564 33.0575 33.0771C30.0744 34.1977 27.3672 35.9509 25.1194 38.215L14.1831 49.2278L14.1351 49.2773C10.0969 53.4874 7.86707 59.1209 7.91746 64.963C7.96789 70.8047 10.2946 76.3986 14.4051 80.5378C18.5165 84.6782 24.084 87.0315 29.91 87.0825C35.7361 87.1336 41.3436 84.8778 45.5263 80.8098L45.575 80.7615L48.6922 77.6225C50.2324 76.0712 50.2237 73.5652 48.6724 72.0246C47.1211 70.4845 44.6151 70.4932 43.0745 72.0444L39.9835 75.1573C37.2927 77.7623 33.7013 79.1987 29.9793 79.1663C26.2466 79.1334 22.6704 77.6261 20.0226 74.9594C17.3738 72.2922 15.8665 68.6783 15.8339 64.8945C15.8013 61.1214 17.2377 57.4916 19.8262 54.7806L30.7379 43.7922C32.1859 42.3336 33.9267 41.2074 35.8414 40.4882C37.756 39.769 39.8006 39.4731 41.8376 39.6201C43.8745 39.767 45.8573 40.3532 47.6516 41.3404C49.4463 42.3276 51.011 43.6933 52.2389 45.3463C53.5428 47.1014 56.0219 47.4671 57.777 46.1637C59.5321 44.8602 59.8979 42.3807 58.5944 40.6256C56.6908 38.0633 54.2608 35.941 51.4678 34.4043C48.6748 32.8675 45.5845 31.953 42.4072 31.7238Z" fill="url(#paint1_linear_8_60)"/>
<defs>
<linearGradient id="paint0_linear_8_60" x1="61.3538" y1="7.91665" x2="61.3538" y2="63.3335" gradientUnits="userSpaceOnUse">
<stop stop-color="#EC008C"/>
<stop offset="1" stop-color="#FC6767"/>
</linearGradient>
<linearGradient id="paint1_linear_8_60" x1="33.646" y1="31.6667" x2="33.646" y2="87.0834" gradientUnits="userSpaceOnUse">
<stop stop-color="#EC008C"/>
<stop offset="1" stop-color="#FC6767"/>
</linearGradient>
</defs>
</svg>
