<svg width="800" height="800" viewBox="0 0 800 800" fill="none" xmlns="http://www.w3.org/2000/svg">
<path d="M309.683 75C242.262 164.37 204.39 263.557 167.31 363.018L578.602 343.303C536.956 250.321 484.506 162.566 422.333 81.8517" stroke="url(#paint0_linear_8_63)" stroke-width="16.6667" stroke-linecap="round" stroke-linejoin="round"/>
<path d="M167.39 362.953C62.1783 482.21 90.3166 542.762 105.705 609.015C211.5 663.103 410.247 726.523 546.642 553.485M633.452 408.585C620.69 382.699 601.862 360.28 578.57 343.238" stroke="url(#paint1_linear_8_63)" stroke-width="16.6667" stroke-linecap="round" stroke-linejoin="round"/>
<path d="M85.845 629.912L105.705 609.063" stroke="url(#paint2_linear_8_63)" stroke-width="16.6667" stroke-linecap="round" stroke-linejoin="round"/>
<path d="M557.203 725C557.683 672.385 541.298 629.977 496.37 604.9" stroke="url(#paint3_linear_8_63)" stroke-width="16.6667" stroke-linecap="round" stroke-linejoin="round"/>
<path d="M659.418 525.105L714.155 510.605L670.547 678.757L618.613 685.322L659.418 525.105Z" stroke="url(#paint4_linear_8_63)" stroke-width="16.6667" stroke-linecap="round" stroke-linejoin="round"/>
<path d="M280.2 531.747C271.932 540.507 269.795 562.168 280.402 567.887C321.207 589.852 381.288 577.038 431.618 573.678C477.618 570.608 523.353 543.37 567.917 550.062C573.497 550.895 567.977 537.677 571.885 533.603C582.182 522.887 606.843 533.992 614.765 521.437C617.47 517.152 617.175 507.545 612.228 506.445C565.276 500.931 517.794 501.756 471.062 508.898C452.077 511.723 434.63 521.552 415.693 524.705C371.082 532.135 311.253 498.863 280.2 531.747Z" stroke="url(#paint5_linear_8_63)" stroke-width="16.6667" stroke-linecap="round" stroke-linejoin="round"/>
<path d="M633.5 408.633C637.408 425.417 641.56 442.3 632.448 452.842C605.833 481.19 476.047 489.842 455.23 476.687L422.137 455.79L405.582 465.637C391.44 474.05 289.515 463.592 262.582 440.837L217.867 403.043C237.655 398.956 257.065 393.214 275.892 385.877C275.892 385.877 377.913 377.788 418.928 402.74C425.056 408.533 429.839 415.6 432.94 423.442L482.273 428.725L546.89 408.785C575.013 399.572 605.345 399.519 633.5 408.633Z" stroke="url(#paint6_linear_8_63)" stroke-width="16.6667" stroke-linecap="round" stroke-linejoin="round"/>
<path d="M305.957 458.688C305.957 458.688 299.872 429.595 308.942 424.46C337.29 408.438 364.942 404.627 389.823 420.065C406.088 430.167 389.222 466.667 389.222 466.667" stroke="url(#paint7_linear_8_63)" stroke-width="16.6667" stroke-linecap="round" stroke-linejoin="round"/>
<path d="M520.27 480.882C527.239 464.923 535.831 449.724 545.912 435.525C552.214 429.395 560.321 425.456 569.034 424.289C577.748 423.122 586.606 424.79 594.298 429.045C605.982 439.447 601.487 467.922 601.487 467.922" stroke="url(#paint8_linear_8_63)" stroke-width="16.6667" stroke-linecap="round" stroke-linejoin="round"/>
<path d="M626.858 457.878C610.803 479.748 597.15 500.985 599.807 504.143" stroke="url(#paint9_linear_8_63)" stroke-width="16.6667" stroke-linecap="round" stroke-linejoin="round"/>
<defs>
<linearGradient id="paint0_linear_8_63" x1="372.956" y1="75" x2="372.956" y2="363.018" gradientUnits="userSpaceOnUse">
<stop stop-color="#00467F"/>
<stop offset="1" stop-color="#A5CC82"/>
</linearGradient>
<linearGradient id="paint1_linear_8_63" x1="361.921" y1="343.238" x2="361.921" y2="666.448" gradientUnits="userSpaceOnUse">
<stop stop-color="#00467F"/>
<stop offset="1" stop-color="#A5CC82"/>
</linearGradient>
<linearGradient id="paint2_linear_8_63" x1="95.775" y1="609.063" x2="95.775" y2="629.912" gradientUnits="userSpaceOnUse">
<stop stop-color="#00467F"/>
<stop offset="1" stop-color="#A5CC82"/>
</linearGradient>
<linearGradient id="paint3_linear_8_63" x1="526.792" y1="604.9" x2="526.792" y2="725" gradientUnits="userSpaceOnUse">
<stop stop-color="#00467F"/>
<stop offset="1" stop-color="#A5CC82"/>
</linearGradient>
<linearGradient id="paint4_linear_8_63" x1="666.384" y1="510.605" x2="666.384" y2="685.322" gradientUnits="userSpaceOnUse">
<stop stop-color="#00467F"/>
<stop offset="1" stop-color="#A5CC82"/>
</linearGradient>
<linearGradient id="paint5_linear_8_63" x1="444.835" y1="502.846" x2="444.835" y2="580.449" gradientUnits="userSpaceOnUse">
<stop stop-color="#00467F"/>
<stop offset="1" stop-color="#A5CC82"/>
</linearGradient>
<linearGradient id="paint6_linear_8_63" x1="427.895" y1="384.625" x2="427.895" y2="482.698" gradientUnits="userSpaceOnUse">
<stop stop-color="#00467F"/>
<stop offset="1" stop-color="#A5CC82"/>
</linearGradient>
<linearGradient id="paint7_linear_8_63" x1="350.429" y1="410.266" x2="350.429" y2="466.667" gradientUnits="userSpaceOnUse">
<stop stop-color="#00467F"/>
<stop offset="1" stop-color="#A5CC82"/>
</linearGradient>
<linearGradient id="paint8_linear_8_63" x1="561.303" y1="423.927" x2="561.303" y2="480.882" gradientUnits="userSpaceOnUse">
<stop stop-color="#00467F"/>
<stop offset="1" stop-color="#A5CC82"/>
</linearGradient>
<linearGradient id="paint9_linear_8_63" x1="613.166" y1="457.878" x2="613.166" y2="504.143" gradientUnits="userSpaceOnUse">
<stop stop-color="#00467F"/>
<stop offset="1" stop-color="#A5CC82"/>
</linearGradient>
</defs>
</svg>
