<svg width="95" height="95" viewBox="0 0 95 95" fill="none" xmlns="http://www.w3.org/2000/svg">
<path opacity="0.997" fill-rule="evenodd" clip-rule="evenodd" d="M54.9178 0C59.4882 0 64.0587 0 68.6292 0C68.6292 11.0909 68.6292 22.1818 68.6292 33.2727C74.9111 33.2727 81.1924 33.2727 87.4743 33.2727C87.4743 38.5903 87.4743 43.9078 87.4743 49.2254C81.1924 49.2254 74.9111 49.2254 68.6292 49.2254C68.6015 57.0177 68.634 64.8096 68.7267 72.601C68.7633 73.7802 68.8716 74.9522 69.0516 76.1171C69.5545 78.4423 70.8433 80.1678 72.9181 81.2936C73.3652 81.5286 73.82 81.7454 74.2827 81.9447C77.0939 82.7443 79.9531 82.9832 82.8605 82.6609C83.7683 82.5607 84.6131 82.2781 85.3948 81.8145C86.1259 81.2851 86.8193 80.7102 87.4743 80.089C87.4743 84.4301 87.4743 88.7705 87.4743 93.1116C85.3981 93.9899 83.2322 94.5213 80.976 94.7068C80.0032 94.8188 79.0284 94.9054 78.0517 94.9673C75.8209 95.0109 73.5894 95.0109 71.3585 94.9673C68.6063 94.7876 65.9636 94.1586 63.4305 93.079C60.1476 91.5039 57.884 88.9971 56.6398 85.5585C55.7916 83.0887 55.2934 80.5493 55.1452 77.9402C54.9399 68.6519 54.8749 59.3625 54.9503 50.0719C57.3675 48.6929 59.6311 47.0976 61.741 45.2861C61.9801 45.0032 62.2184 44.721 62.4558 44.4396C60.9887 39.2727 58.4868 34.7039 54.9503 30.7333C54.9178 20.4889 54.9069 10.2445 54.9178 0Z" fill="#3A3A3C"/>
<path opacity="0.993" fill-rule="evenodd" clip-rule="evenodd" d="M8 30.9287C8 30.8201 8 30.7116 8 30.6031C12.0088 26.9434 16.6226 24.2847 21.8414 22.6268C29.4054 20.4053 36.5968 21.2735 43.4158 25.2313C50.5278 29.4934 55.5748 35.5055 58.5568 43.2676C53.7289 47.7705 48.0536 50.7005 41.5313 52.0578C34.7234 53.265 28.2685 52.2449 22.1663 48.9975C18.7613 47.045 15.8696 44.4947 13.4911 41.3467C11.133 38.1626 9.30269 34.69 8 30.9287ZM28.8596 27.8032C32.2343 27.7003 35.4401 28.384 38.4771 29.8543C43.7561 32.453 47.7958 36.3272 50.5964 41.477C46.6675 44.164 42.3245 45.7159 37.5673 46.1325C28.7194 46.4483 21.9287 42.8996 17.1951 35.4866C16.6366 34.6066 16.1276 33.695 15.668 32.7518C19.6046 29.8792 24.0018 28.2297 28.8596 27.8032Z" fill="#50B747"/>
</svg>
